<?xml version="1.0" encoding="UTF-8"?>
<svg xmlns="http://www.w3.org/2000/svg" xmlns:xlink="http://www.w3.org/1999/xlink" width="708.8598pt" height="611.8863pt" viewBox="0 0 708.8598 611.8863" version="1.1">
<defs>
<clipPath id="clip1">
  <path d="M 5 70 L 708.859375 70 L 708.859375 610 L 5 610 Z M 5 70 "/>
</clipPath>
<clipPath id="clip2">
  <path d="M 283 192 L 708.859375 192 L 708.859375 610 L 283 610 Z M 283 192 "/>
</clipPath>
</defs>
<g id="surface1">
<g clip-path="url(#clip1)" clip-rule="nonzero">
<path style=" stroke:none;fill-rule:evenodd;fill:rgb(92.156982%,89.411926%,83.921814%);fill-opacity:1;" d="M 707.242188 545.273438 L 707.242188 588.5 C 707.242188 588.5 707.953125 609.761719 671.8125 609.761719 L 46.773438 606.21875 C 46.773438 606.21875 4.59375 606.945313 7.429688 546 C 9.703125 497.085938 6.738281 196.65625 5.476563 79.960938 C 5.382813 71.242188 7.796875 73.304688 12.601563 72.59375 L 452.472656 72.59375 C 454.722656 70.964844 457.507813 70 460.519531 70 C 463.53125 70 466.3125 70.964844 468.5625 72.59375 L 698.945313 72.59375 C 711.917969 72.59375 707.953125 71.179688 708.859375 85.640625 Z M 707.242188 545.273438 "/>
</g>
<g clip-path="url(#clip2)" clip-rule="nonzero">
<path style=" stroke:none;fill-rule:evenodd;fill:rgb(32.940674%,47.450256%,29.019165%);fill-opacity:1;" d="M 368.808594 339.738281 L 368.503906 549.523438 L 335.195313 549.523438 L 333.824219 607.84375 L 671.8125 609.761719 C 707.953125 609.761719 707.242188 588.5 707.242188 588.5 L 707.242188 545.273438 L 708.398438 216.902344 L 515.90625 214.328125 C 459.921875 212.910156 423.78125 265.351563 423.78125 265.351563 C 406.0625 292.988281 401.8125 274.5625 401.8125 274.5625 L 386.21875 215.035156 C 379.84375 179.601563 336.867188 196 336.867188 196 C 306.644531 202.476563 291.96875 220.707031 291.96875 220.707031 C 279.210938 238.421875 284.882813 252.59375 284.882813 252.59375 L 290.550781 285.195313 L 291.261719 339.050781 Z M 368.808594 339.738281 "/>
</g>
<path style=" stroke:none;fill-rule:evenodd;fill:rgb(32.940674%,47.450256%,29.019165%);fill-opacity:1;" d="M 308.976563 360.3125 L 364.253906 360.3125 L 364.253906 543.855469 L 308.976563 543.855469 Z M 308.976563 360.3125 "/>
<path style=" stroke:none;fill-rule:evenodd;fill:rgb(32.940674%,47.450256%,29.019165%);fill-opacity:1;" d="M 279.210938 556.609375 C 260.078125 555.902344 155.90625 547.398438 155.90625 547.398438 C 124.722656 541.730469 123.308594 561.570313 123.308594 561.570313 L 122.234375 606.644531 L 328.324219 607.8125 L 328.574219 578.089844 C 310.878906 562.546875 279.210938 556.609375 279.210938 556.609375 "/>
<path style=" stroke:none;fill-rule:evenodd;fill:rgb(32.940674%,47.450256%,29.019165%);fill-opacity:1;" d="M 96.378906 562.988281 L 38.976563 562.988281 L 38.976563 523.628906 L 7.96875 523.628906 C 7.839844 533.398438 7.660156 541.007813 7.429688 546 C 4.59375 606.945313 46.773438 606.21875 46.773438 606.21875 L 102.984375 606.535156 L 103.464844 562.988281 Z M 96.378906 562.988281 "/>
<path style=" stroke:none;fill-rule:evenodd;fill:rgb(32.940674%,47.450256%,29.019165%);fill-opacity:1;" d="M 24.804688 282.359375 L 62.363281 282.359375 L 62.363281 327.769531 L 24.804688 355.351563 Z M 24.804688 282.359375 "/>
<path style=" stroke:none;fill-rule:evenodd;fill:rgb(32.940674%,47.450256%,29.019165%);fill-opacity:1;" d="M 35.433594 373.066406 L 35.433594 404.25 L 25.511719 404.25 L 25.511719 363.144531 L 25.457031 360.597656 L 65.199219 331.402344 L 65.199219 373.066406 Z M 35.433594 373.066406 "/>
<path style=" stroke:none;fill-rule:evenodd;fill:rgb(32.940674%,47.450256%,29.019165%);fill-opacity:1;" d="M 249.449219 122.203125 L 287.714844 121.492188 C 287.714844 121.492188 282.757813 156.925781 301.179688 177.476563 C 301.179688 177.476563 308.976563 183.855469 301.890625 188.816406 L 277.085938 207.949219 C 277.085938 207.949219 267.875 215.035156 260.789063 205.824219 L 234.566406 176.058594 C 234.566406 176.058594 241.652344 171.097656 235.277344 144.171875 C 235.277344 144.171875 248.03125 140.625 249.449219 122.203125 "/>
<path style=" stroke:none;fill-rule:evenodd;fill:rgb(32.940674%,47.450256%,29.019165%);fill-opacity:1;" d="M 129.683594 253.304688 C 129.683594 253.304688 126.140625 259.683594 121.179688 254.722656 L 102.046875 239.839844 C 102.046875 239.839844 95.667969 238.421875 102.757813 231.335938 L 114.804688 215.746094 C 114.804688 215.746094 120.746094 204.65625 128.976563 214.328125 L 138.898438 226.375 C 138.898438 226.375 141.730469 228.5 139.605469 235.585938 Z M 129.683594 253.304688 "/>
<path style="fill-rule:evenodd;fill:rgb(90.196228%,90.588379%,90.98053%);fill-opacity:1;stroke-width:0.216;stroke-linecap:butt;stroke-linejoin:miter;stroke:rgb(0%,0%,0%);stroke-opacity:1;stroke-miterlimit:2.613126;" d="M 96.378906 278.503488 L 264.847656 278.503488 L 264.847656 287.546456 L 77.953125 287.546456 L 77.953125 278.503488 Z M 96.378906 278.503488 " transform="matrix(1,0,0,-1,0,611.8863)"/>
<path style="fill-rule:evenodd;fill:rgb(90.196228%,90.588379%,90.98053%);fill-opacity:1;stroke-width:0.216;stroke-linecap:butt;stroke-linejoin:miter;stroke:rgb(0%,0%,0%);stroke-opacity:1;stroke-miterlimit:2.613126;" d="M 279.921875 176.456613 L 77.953125 176.456613 L 77.953125 167.952706 L 279.921875 167.952706 Z M 279.921875 176.456613 " transform="matrix(1,0,0,-1,0,611.8863)"/>
<path style="fill-rule:evenodd;fill:rgb(90.196228%,90.588379%,90.98053%);fill-opacity:1;stroke-width:0.216;stroke-linecap:butt;stroke-linejoin:miter;stroke:rgb(0%,0%,0%);stroke-opacity:1;stroke-miterlimit:2.613126;" d="M 51.023438 179.999581 L 51.023438 131.812081 L 77.953125 131.812081 L 77.953125 324.565988 L 65.199219 324.565988 L 65.199219 179.999581 Z M 51.023438 179.999581 " transform="matrix(1,0,0,-1,0,611.8863)"/>
<path style="fill-rule:evenodd;fill:rgb(90.196228%,90.588379%,90.98053%);fill-opacity:1;stroke-width:0.216;stroke-linecap:butt;stroke-linejoin:miter;stroke:rgb(0%,0%,0%);stroke-opacity:1;stroke-miterlimit:2.613126;" d="M 77.953125 131.812081 L 88.582031 131.812081 L 88.582031 109.132394 L 60.234375 109.132394 L 60.234375 117.3863 L 77.953125 117.3863 Z M 77.953125 131.812081 " transform="matrix(1,0,0,-1,0,611.8863)"/>
<path style=" stroke:none;fill-rule:evenodd;fill:rgb(76.078796%,73.725891%,69.412231%);fill-opacity:1;" d="M 579.683594 108.738281 L 579.683594 215.179688 L 680.316406 216.527344 L 680.316406 134.25 L 688.820313 134.25 L 688.820313 108.738281 Z M 579.683594 108.738281 "/>
<path style="fill-rule:evenodd;fill:rgb(65.490723%,66.275024%,67.451477%);fill-opacity:1;stroke-width:0.216;stroke-linecap:butt;stroke-linejoin:miter;stroke:rgb(0%,0%,0%);stroke-opacity:1;stroke-miterlimit:2.613126;" d="M 110.550781 121.179269 L 190.628906 121.179269 L 190.628906 90.706613 L 110.550781 90.706613 Z M 110.550781 121.179269 " transform="matrix(1,0,0,-1,0,611.8863)"/>
<path style="fill-rule:evenodd;fill:rgb(65.490723%,66.275024%,67.451477%);fill-opacity:1;stroke-width:0.216;stroke-linecap:butt;stroke-linejoin:miter;stroke:rgb(0%,0%,0%);stroke-opacity:1;stroke-miterlimit:2.613126;" d="M 154.488281 415.276925 L 176.457031 415.276925 L 176.457031 367.796456 L 154.488281 367.796456 Z M 154.488281 415.276925 " transform="matrix(1,0,0,-1,0,611.8863)"/>
<path style="fill-rule:evenodd;fill:rgb(65.490723%,66.275024%,67.451477%);fill-opacity:1;stroke-width:0.216;stroke-linecap:butt;stroke-linejoin:miter;stroke:rgb(0%,0%,0%);stroke-opacity:1;stroke-miterlimit:2.613126;" d="M 180 415.276925 L 201.261719 415.276925 L 201.261719 367.796456 L 180 367.796456 Z M 180 415.276925 " transform="matrix(1,0,0,-1,0,611.8863)"/>
<path style="fill-rule:evenodd;fill:rgb(65.490723%,66.275024%,67.451477%);fill-opacity:1;stroke-width:0.216;stroke-linecap:butt;stroke-linejoin:miter;stroke:rgb(0%,0%,0%);stroke-opacity:1;stroke-miterlimit:2.613126;" d="M 205.511719 415.276925 L 227.105469 415.276925 L 227.105469 367.796456 L 205.511719 367.796456 Z M 205.511719 415.276925 " transform="matrix(1,0,0,-1,0,611.8863)"/>
<path style="fill-rule:evenodd;fill:rgb(65.490723%,66.275024%,67.451477%);fill-opacity:1;stroke-width:0.216;stroke-linecap:butt;stroke-linejoin:miter;stroke:rgb(0%,0%,0%);stroke-opacity:1;stroke-miterlimit:2.613126;" d="M 384.003906 484.632394 L 405.972656 484.632394 L 405.972656 437.151925 L 384.003906 437.151925 Z M 384.003906 484.632394 " transform="matrix(1,0,0,-1,0,611.8863)"/>
<path style="fill-rule:evenodd;fill:rgb(65.490723%,66.275024%,67.451477%);fill-opacity:1;stroke-width:0.216;stroke-linecap:butt;stroke-linejoin:miter;stroke:rgb(0%,0%,0%);stroke-opacity:1;stroke-miterlimit:2.613126;" d="M 411.5 484.632394 L 432.761719 484.632394 L 432.761719 437.151925 L 411.5 437.151925 Z M 411.5 484.632394 " transform="matrix(1,0,0,-1,0,611.8863)"/>
<path style="fill-rule:evenodd;fill:rgb(65.490723%,66.275024%,67.451477%);fill-opacity:1;stroke-width:0.216;stroke-linecap:butt;stroke-linejoin:miter;stroke:rgb(0%,0%,0%);stroke-opacity:1;stroke-miterlimit:2.613126;" d="M 437.011719 484.632394 L 458.605469 484.632394 L 458.605469 437.151925 L 437.011719 437.151925 Z M 437.011719 484.632394 " transform="matrix(1,0,0,-1,0,611.8863)"/>
<path style="fill-rule:evenodd;fill:rgb(65.490723%,66.275024%,67.451477%);fill-opacity:1;stroke-width:0.216;stroke-linecap:butt;stroke-linejoin:miter;stroke:rgb(0%,0%,0%);stroke-opacity:1;stroke-miterlimit:2.613126;" d="M 462.917969 484.593331 L 484.511719 484.593331 L 484.511719 437.112863 L 462.917969 437.112863 Z M 462.917969 484.593331 " transform="matrix(1,0,0,-1,0,611.8863)"/>
<path style="fill-rule:evenodd;fill:rgb(65.490723%,66.275024%,67.451477%);fill-opacity:1;stroke-width:0.216;stroke-linecap:butt;stroke-linejoin:miter;stroke:rgb(0%,0%,0%);stroke-opacity:1;stroke-miterlimit:2.613126;" d="M 335.90625 484.581613 L 357.808594 486.288644 L 361.5 438.952706 L 339.597656 437.245675 Z M 335.90625 484.581613 " transform="matrix(1,0,0,-1,0,611.8863)"/>
<path style="fill-rule:evenodd;fill:rgb(65.490723%,66.275024%,67.451477%);fill-opacity:1;stroke-width:0.216;stroke-linecap:butt;stroke-linejoin:miter;stroke:rgb(0%,0%,0%);stroke-opacity:1;stroke-miterlimit:2.613126;" d="M 301.179688 483.222238 L 323.039063 485.433175 L 327.816406 438.194894 L 305.960938 435.983956 Z M 301.179688 483.222238 " transform="matrix(1,0,0,-1,0,611.8863)"/>
<path style="fill-rule:evenodd;fill:rgb(65.490723%,66.275024%,67.451477%);fill-opacity:1;stroke-width:0.216;stroke-linecap:butt;stroke-linejoin:miter;stroke:rgb(0%,0%,0%);stroke-opacity:1;stroke-miterlimit:2.613126;" d="M 77.953125 324.565988 L 77.953125 445.749581 L 160.867188 445.749581 L 160.867188 451.41755 L 77.953125 451.41755 L 77.953125 481.108956 L 65.199219 481.108956 L 65.199219 324.565988 Z M 77.953125 324.565988 " transform="matrix(1,0,0,-1,0,611.8863)"/>
<path style="fill-rule:evenodd;fill:rgb(65.490723%,66.275024%,67.451477%);fill-opacity:1;stroke-width:0.216;stroke-linecap:butt;stroke-linejoin:miter;stroke:rgb(0%,0%,0%);stroke-opacity:1;stroke-miterlimit:2.613126;" d="M 65.199219 338.030831 L 65.199219 374.171456 L 37.558594 374.171456 L 37.558594 338.030831 Z M 65.199219 338.030831 " transform="matrix(1,0,0,-1,0,611.8863)"/>
<path style="fill-rule:evenodd;fill:rgb(65.490723%,66.275024%,67.451477%);fill-opacity:1;stroke-width:0.216;stroke-linecap:butt;stroke-linejoin:miter;stroke:rgb(0%,0%,0%);stroke-opacity:1;stroke-miterlimit:2.613126;" d="M 37.558594 374.171456 L 65.199219 374.171456 L 65.199219 410.315988 L 37.558594 410.315988 Z M 37.558594 374.171456 " transform="matrix(1,0,0,-1,0,611.8863)"/>
<path style="fill-rule:evenodd;fill:rgb(65.490723%,66.275024%,67.451477%);fill-opacity:1;stroke-width:0.216;stroke-linecap:butt;stroke-linejoin:miter;stroke:rgb(0%,0%,0%);stroke-opacity:1;stroke-miterlimit:2.613126;" d="M 37.558594 445.745675 L 65.199219 445.745675 L 65.199219 481.183175 L 37.558594 481.183175 Z M 37.558594 445.745675 " transform="matrix(1,0,0,-1,0,611.8863)"/>
<path style="fill-rule:evenodd;fill:rgb(65.490723%,66.275024%,67.451477%);fill-opacity:1;stroke-width:0.216;stroke-linecap:butt;stroke-linejoin:miter;stroke:rgb(0%,0%,0%);stroke-opacity:1;stroke-miterlimit:2.613126;" d="M 65.199219 410.315988 L 65.199219 445.745675 L 37.558594 445.745675 L 37.558594 410.315988 Z M 65.199219 410.315988 " transform="matrix(1,0,0,-1,0,611.8863)"/>
<path style="fill-rule:evenodd;fill:rgb(65.490723%,66.275024%,67.451477%);fill-opacity:1;stroke-width:0.216;stroke-linecap:butt;stroke-linejoin:miter;stroke:rgb(0%,0%,0%);stroke-opacity:1;stroke-miterlimit:2.613126;" d="M 94.25 451.41755 L 127.558594 451.41755 L 127.558594 484.015206 L 94.25 484.015206 Z M 94.25 451.41755 " transform="matrix(1,0,0,-1,0,611.8863)"/>
<path style="fill-rule:evenodd;fill:rgb(65.490723%,66.275024%,67.451477%);fill-opacity:1;stroke-width:0.216;stroke-linecap:butt;stroke-linejoin:miter;stroke:rgb(0%,0%,0%);stroke-opacity:1;stroke-miterlimit:2.613126;" d="M 127.558594 451.41755 L 160.867188 451.41755 L 160.867188 484.015206 L 127.558594 484.015206 Z M 127.558594 451.41755 " transform="matrix(1,0,0,-1,0,611.8863)"/>
<path style="fill-rule:evenodd;fill:rgb(65.490723%,66.275024%,67.451477%);fill-opacity:1;stroke-width:0.216;stroke-linecap:butt;stroke-linejoin:miter;stroke:rgb(0%,0%,0%);stroke-opacity:1;stroke-miterlimit:2.613126;" d="M 94.25 451.41755 L 94.25 463.206613 L 77.953125 463.206613 L 77.953125 451.41755 Z M 94.25 451.41755 " transform="matrix(1,0,0,-1,0,611.8863)"/>
<path style="fill-rule:evenodd;fill:rgb(65.490723%,66.275024%,67.451477%);fill-opacity:1;stroke-width:0.216;stroke-linecap:butt;stroke-linejoin:miter;stroke:rgb(0%,0%,0%);stroke-opacity:1;stroke-miterlimit:2.613126;" d="M 94.25 463.206613 L 94.25 474.093331 L 77.953125 474.093331 L 77.953125 463.206613 Z M 94.25 463.206613 " transform="matrix(1,0,0,-1,0,611.8863)"/>
<path style="fill-rule:evenodd;fill:rgb(65.490723%,66.275024%,67.451477%);fill-opacity:1;stroke-width:0.216;stroke-linecap:butt;stroke-linejoin:miter;stroke:rgb(0%,0%,0%);stroke-opacity:1;stroke-miterlimit:2.613126;" d="M 94.25 474.093331 L 94.25 484.015206 L 77.953125 484.015206 L 77.953125 474.093331 Z M 94.25 474.093331 " transform="matrix(1,0,0,-1,0,611.8863)"/>
<path style="fill-rule:evenodd;fill:rgb(77.255249%,70.588684%,83.137512%);fill-opacity:1;stroke-width:0.216;stroke-linecap:butt;stroke-linejoin:miter;stroke:rgb(0%,0%,0%);stroke-opacity:1;stroke-miterlimit:2.613126;" d="M 46.0625 179.999581 L 46.0625 207.6363 L 35.433594 207.6363 L 35.433594 179.999581 Z M 46.0625 179.999581 " transform="matrix(1,0,0,-1,0,611.8863)"/>
<path style="fill-rule:evenodd;fill:rgb(77.255249%,70.588684%,83.137512%);fill-opacity:1;stroke-width:0.216;stroke-linecap:butt;stroke-linejoin:miter;stroke:rgb(0%,0%,0%);stroke-opacity:1;stroke-miterlimit:2.613126;" d="M 46.0625 207.6363 L 46.0625 179.999581 L 65.199219 179.999581 L 65.199219 207.6363 Z M 46.0625 207.6363 " transform="matrix(1,0,0,-1,0,611.8863)"/>
<path style="fill-rule:evenodd;fill:rgb(77.255249%,70.588684%,83.137512%);fill-opacity:1;stroke-width:0.216;stroke-linecap:butt;stroke-linejoin:miter;stroke:rgb(0%,0%,0%);stroke-opacity:1;stroke-miterlimit:2.613126;" d="M 60.234375 207.6363 L 65.199219 207.6363 L 65.199219 218.976144 L 60.234375 218.976144 Z M 60.234375 207.6363 " transform="matrix(1,0,0,-1,0,611.8863)"/>
<path style="fill-rule:evenodd;fill:rgb(77.255249%,70.588684%,83.137512%);fill-opacity:1;stroke-width:0.216;stroke-linecap:butt;stroke-linejoin:miter;stroke:rgb(0%,0%,0%);stroke-opacity:1;stroke-miterlimit:2.613126;" d="M 46.0625 207.6363 L 60.234375 207.6363 L 60.234375 218.976144 L 46.0625 218.976144 Z M 46.0625 207.6363 " transform="matrix(1,0,0,-1,0,611.8863)"/>
<path style="fill-rule:evenodd;fill:rgb(77.255249%,70.588684%,83.137512%);fill-opacity:1;stroke-width:0.216;stroke-linecap:butt;stroke-linejoin:miter;stroke:rgb(0%,0%,0%);stroke-opacity:1;stroke-miterlimit:2.613126;" d="M 46.0625 207.6363 L 46.0625 218.976144 L 35.433594 218.976144 L 35.433594 207.6363 Z M 46.0625 207.6363 " transform="matrix(1,0,0,-1,0,611.8863)"/>
<path style="fill-rule:evenodd;fill:rgb(77.255249%,70.588684%,83.137512%);fill-opacity:1;stroke-width:0.216;stroke-linecap:butt;stroke-linejoin:miter;stroke:rgb(0%,0%,0%);stroke-opacity:1;stroke-miterlimit:2.613126;" d="M 50.3125 238.819894 L 50.3125 226.062081 L 65.199219 226.062081 L 65.199219 238.819894 Z M 50.3125 238.819894 " transform="matrix(1,0,0,-1,0,611.8863)"/>
<path style="fill-rule:evenodd;fill:rgb(77.255249%,70.588684%,83.137512%);fill-opacity:1;stroke-width:0.216;stroke-linecap:butt;stroke-linejoin:miter;stroke:rgb(0%,0%,0%);stroke-opacity:1;stroke-miterlimit:2.613126;" d="M 35.433594 238.819894 L 35.433594 226.062081 L 50.3125 226.062081 L 50.3125 238.819894 Z M 35.433594 238.819894 " transform="matrix(1,0,0,-1,0,611.8863)"/>
<path style="fill-rule:evenodd;fill:rgb(77.255249%,70.588684%,83.137512%);fill-opacity:1;stroke-width:0.216;stroke-linecap:butt;stroke-linejoin:miter;stroke:rgb(0%,0%,0%);stroke-opacity:1;stroke-miterlimit:2.613126;" d="M 35.433594 226.062081 L 35.433594 218.976144 L 65.199219 218.976144 L 65.199219 226.062081 Z M 35.433594 226.062081 " transform="matrix(1,0,0,-1,0,611.8863)"/>
<path style="fill-rule:evenodd;fill:rgb(97.254944%,89.019775%,71.372986%);fill-opacity:1;stroke-width:0.216;stroke-linecap:butt;stroke-linejoin:miter;stroke:rgb(0%,0%,0%);stroke-opacity:1;stroke-miterlimit:2.613126;" d="M 38.976563 109.132394 L 96.378906 109.132394 L 96.378906 48.898019 L 38.976563 48.898019 Z M 38.976563 109.132394 " transform="matrix(1,0,0,-1,0,611.8863)"/>
<path style="fill-rule:evenodd;fill:rgb(69.804382%,80.392456%,90.98053%);fill-opacity:1;stroke-width:0.216;stroke-linecap:butt;stroke-linejoin:miter;stroke:rgb(0%,0%,0%);stroke-opacity:1;stroke-miterlimit:2.613126;" d="M 95.667969 167.952706 L 95.667969 131.812081 L 126.140625 131.812081 L 126.140625 167.952706 Z M 95.667969 167.952706 " transform="matrix(1,0,0,-1,0,611.8863)"/>
<path style="fill-rule:evenodd;fill:rgb(69.804382%,80.392456%,90.98053%);fill-opacity:1;stroke-width:0.216;stroke-linecap:butt;stroke-linejoin:miter;stroke:rgb(0%,0%,0%);stroke-opacity:1;stroke-miterlimit:2.613126;" d="M 95.667969 176.456613 L 126.140625 176.456613 L 126.140625 212.597238 L 95.667969 212.597238 Z M 95.667969 176.456613 " transform="matrix(1,0,0,-1,0,611.8863)"/>
<path style="fill-rule:evenodd;fill:rgb(69.804382%,80.392456%,90.98053%);fill-opacity:1;stroke-width:0.216;stroke-linecap:butt;stroke-linejoin:miter;stroke:rgb(0%,0%,0%);stroke-opacity:1;stroke-miterlimit:2.613126;" d="M 126.140625 212.597238 L 126.140625 176.456613 L 157.324219 176.456613 L 157.324219 212.597238 Z M 126.140625 212.597238 " transform="matrix(1,0,0,-1,0,611.8863)"/>
<path style="fill-rule:evenodd;fill:rgb(69.804382%,80.392456%,90.98053%);fill-opacity:1;stroke-width:0.216;stroke-linecap:butt;stroke-linejoin:miter;stroke:rgb(0%,0%,0%);stroke-opacity:1;stroke-miterlimit:2.613126;" d="M 126.140625 167.952706 L 126.140625 131.812081 L 157.324219 131.812081 L 157.324219 167.952706 Z M 126.140625 167.952706 " transform="matrix(1,0,0,-1,0,611.8863)"/>
<path style="fill-rule:evenodd;fill:rgb(69.804382%,80.392456%,90.98053%);fill-opacity:1;stroke-width:0.216;stroke-linecap:butt;stroke-linejoin:miter;stroke:rgb(0%,0%,0%);stroke-opacity:1;stroke-miterlimit:2.613126;" d="M 157.324219 167.952706 L 157.324219 131.812081 L 187.96875 131.812081 L 187.96875 167.952706 Z M 157.324219 167.952706 " transform="matrix(1,0,0,-1,0,611.8863)"/>
<path style="fill-rule:evenodd;fill:rgb(69.804382%,80.392456%,90.98053%);fill-opacity:1;stroke-width:0.216;stroke-linecap:butt;stroke-linejoin:miter;stroke:rgb(0%,0%,0%);stroke-opacity:1;stroke-miterlimit:2.613126;" d="M 157.324219 212.597238 L 157.324219 176.456613 L 218.976563 176.456613 L 218.976563 212.597238 Z M 157.324219 212.597238 " transform="matrix(1,0,0,-1,0,611.8863)"/>
<path style="fill-rule:evenodd;fill:rgb(69.804382%,80.392456%,90.98053%);fill-opacity:1;stroke-width:0.216;stroke-linecap:butt;stroke-linejoin:miter;stroke:rgb(0%,0%,0%);stroke-opacity:1;stroke-miterlimit:2.613126;" d="M 187.96875 167.952706 L 187.96875 131.812081 L 218.976563 131.812081 L 218.976563 167.952706 Z M 187.96875 167.952706 " transform="matrix(1,0,0,-1,0,611.8863)"/>
<path style="fill-rule:evenodd;fill:rgb(69.804382%,80.392456%,90.98053%);fill-opacity:1;stroke-width:0.216;stroke-linecap:butt;stroke-linejoin:miter;stroke:rgb(0%,0%,0%);stroke-opacity:1;stroke-miterlimit:2.613126;" d="M 218.976563 167.952706 L 218.976563 131.812081 L 249.449219 131.812081 L 249.449219 167.952706 Z M 218.976563 167.952706 " transform="matrix(1,0,0,-1,0,611.8863)"/>
<path style="fill-rule:evenodd;fill:rgb(69.804382%,80.392456%,90.98053%);fill-opacity:1;stroke-width:0.216;stroke-linecap:butt;stroke-linejoin:miter;stroke:rgb(0%,0%,0%);stroke-opacity:1;stroke-miterlimit:2.613126;" d="M 218.976563 212.597238 L 218.976563 176.456613 L 249.449219 176.456613 L 249.449219 212.597238 Z M 218.976563 212.597238 " transform="matrix(1,0,0,-1,0,611.8863)"/>
<path style="fill-rule:evenodd;fill:rgb(69.804382%,80.392456%,90.98053%);fill-opacity:1;stroke-width:0.216;stroke-linecap:butt;stroke-linejoin:miter;stroke:rgb(0%,0%,0%);stroke-opacity:1;stroke-miterlimit:2.613126;" d="M 249.449219 212.597238 L 249.449219 176.456613 L 279.921875 176.456613 L 279.921875 212.597238 Z M 249.449219 212.597238 " transform="matrix(1,0,0,-1,0,611.8863)"/>
<path style="fill-rule:evenodd;fill:rgb(69.804382%,80.392456%,90.98053%);fill-opacity:1;stroke-width:0.216;stroke-linecap:butt;stroke-linejoin:miter;stroke:rgb(0%,0%,0%);stroke-opacity:1;stroke-miterlimit:2.613126;" d="M 249.449219 167.952706 L 249.449219 131.812081 L 279.921875 131.812081 L 279.921875 167.952706 Z M 249.449219 167.952706 " transform="matrix(1,0,0,-1,0,611.8863)"/>
<path style="fill-rule:evenodd;fill:rgb(69.804382%,80.392456%,90.98053%);fill-opacity:1;stroke-width:0.216;stroke-linecap:butt;stroke-linejoin:miter;stroke:rgb(0%,0%,0%);stroke-opacity:1;stroke-miterlimit:2.613126;" d="M 95.667969 202.679269 L 95.667969 212.597238 L 77.953125 212.597238 L 77.953125 202.679269 Z M 95.667969 202.679269 " transform="matrix(1,0,0,-1,0,611.8863)"/>
<path style="fill-rule:evenodd;fill:rgb(69.804382%,80.392456%,90.98053%);fill-opacity:1;stroke-width:0.216;stroke-linecap:butt;stroke-linejoin:miter;stroke:rgb(0%,0%,0%);stroke-opacity:1;stroke-miterlimit:2.613126;" d="M 95.667969 176.456613 L 95.667969 202.679269 L 77.953125 202.679269 L 77.953125 176.456613 Z M 95.667969 176.456613 " transform="matrix(1,0,0,-1,0,611.8863)"/>
<path style="fill-rule:evenodd;fill:rgb(69.804382%,80.392456%,90.98053%);fill-opacity:1;stroke-width:0.216;stroke-linecap:butt;stroke-linejoin:miter;stroke:rgb(0%,0%,0%);stroke-opacity:1;stroke-miterlimit:2.613126;" d="M 95.667969 131.812081 L 95.667969 149.882394 L 77.953125 149.882394 L 77.953125 131.812081 Z M 95.667969 131.812081 " transform="matrix(1,0,0,-1,0,611.8863)"/>
<path style="fill-rule:evenodd;fill:rgb(69.804382%,80.392456%,90.98053%);fill-opacity:1;stroke-width:0.216;stroke-linecap:butt;stroke-linejoin:miter;stroke:rgb(0%,0%,0%);stroke-opacity:1;stroke-miterlimit:2.613126;" d="M 95.667969 149.882394 L 95.667969 167.952706 L 77.953125 167.952706 L 77.953125 149.882394 Z M 95.667969 149.882394 " transform="matrix(1,0,0,-1,0,611.8863)"/>
<path style="fill-rule:evenodd;fill:rgb(69.804382%,80.392456%,90.98053%);fill-opacity:1;stroke-width:0.216;stroke-linecap:butt;stroke-linejoin:miter;stroke:rgb(0%,0%,0%);stroke-opacity:1;stroke-miterlimit:2.613126;" d="M 77.953125 287.546456 L 124.726563 287.546456 L 124.726563 324.565988 L 77.953125 324.565988 Z M 77.953125 287.546456 " transform="matrix(1,0,0,-1,0,611.8863)"/>
<path style="fill-rule:evenodd;fill:rgb(69.804382%,80.392456%,90.98053%);fill-opacity:1;stroke-width:0.216;stroke-linecap:butt;stroke-linejoin:miter;stroke:rgb(0%,0%,0%);stroke-opacity:1;stroke-miterlimit:2.613126;" d="M 124.726563 324.565988 L 124.726563 287.546456 L 171.496094 287.546456 L 171.496094 324.565988 Z M 124.726563 324.565988 " transform="matrix(1,0,0,-1,0,611.8863)"/>
<path style="fill-rule:evenodd;fill:rgb(69.804382%,80.392456%,90.98053%);fill-opacity:1;stroke-width:0.216;stroke-linecap:butt;stroke-linejoin:miter;stroke:rgb(0%,0%,0%);stroke-opacity:1;stroke-miterlimit:2.613126;" d="M 171.496094 324.565988 L 171.496094 287.546456 L 201.96875 287.546456 L 201.96875 324.565988 Z M 171.496094 324.565988 " transform="matrix(1,0,0,-1,0,611.8863)"/>
<path style="fill-rule:evenodd;fill:rgb(69.804382%,80.392456%,90.98053%);fill-opacity:1;stroke-width:0.216;stroke-linecap:butt;stroke-linejoin:miter;stroke:rgb(0%,0%,0%);stroke-opacity:1;stroke-miterlimit:2.613126;" d="M 201.96875 324.565988 L 201.96875 287.546456 L 234.566406 287.546456 L 234.566406 324.565988 Z M 201.96875 324.565988 " transform="matrix(1,0,0,-1,0,611.8863)"/>
<path style="fill-rule:evenodd;fill:rgb(69.804382%,80.392456%,90.98053%);fill-opacity:1;stroke-width:0.216;stroke-linecap:butt;stroke-linejoin:miter;stroke:rgb(0%,0%,0%);stroke-opacity:1;stroke-miterlimit:2.613126;" d="M 234.566406 324.565988 L 234.566406 287.546456 L 264.847656 287.546456 L 264.847656 324.565988 Z M 234.566406 324.565988 " transform="matrix(1,0,0,-1,0,611.8863)"/>
<path style="fill-rule:evenodd;fill:rgb(69.804382%,80.392456%,90.98053%);fill-opacity:1;stroke-width:0.216;stroke-linecap:butt;stroke-linejoin:miter;stroke:rgb(0%,0%,0%);stroke-opacity:1;stroke-miterlimit:2.613126;" d="M 256.535156 278.503488 L 256.535156 241.362863 L 264.847656 241.362863 L 264.847656 278.503488 Z M 256.535156 278.503488 " transform="matrix(1,0,0,-1,0,611.8863)"/>
<path style="fill-rule:evenodd;fill:rgb(69.804382%,80.392456%,90.98053%);fill-opacity:1;stroke-width:0.216;stroke-linecap:butt;stroke-linejoin:miter;stroke:rgb(0%,0%,0%);stroke-opacity:1;stroke-miterlimit:2.613126;" d="M 246.613281 278.503488 L 246.613281 241.362863 L 256.535156 241.362863 L 256.535156 278.503488 Z M 246.613281 278.503488 " transform="matrix(1,0,0,-1,0,611.8863)"/>
<path style="fill-rule:evenodd;fill:rgb(69.804382%,80.392456%,90.98053%);fill-opacity:1;stroke-width:0.216;stroke-linecap:butt;stroke-linejoin:miter;stroke:rgb(0%,0%,0%);stroke-opacity:1;stroke-miterlimit:2.613126;" d="M 217.558594 278.503488 L 217.558594 241.362863 L 246.613281 241.362863 L 246.613281 278.503488 Z M 217.558594 278.503488 " transform="matrix(1,0,0,-1,0,611.8863)"/>
<path style="fill-rule:evenodd;fill:rgb(69.804382%,80.392456%,90.98053%);fill-opacity:1;stroke-width:0.216;stroke-linecap:butt;stroke-linejoin:miter;stroke:rgb(0%,0%,0%);stroke-opacity:1;stroke-miterlimit:2.613126;" d="M 187.085938 278.503488 L 187.085938 241.362863 L 217.558594 241.362863 L 217.558594 278.503488 Z M 187.085938 278.503488 " transform="matrix(1,0,0,-1,0,611.8863)"/>
<path style="fill-rule:evenodd;fill:rgb(69.804382%,80.392456%,90.98053%);fill-opacity:1;stroke-width:0.216;stroke-linecap:butt;stroke-linejoin:miter;stroke:rgb(0%,0%,0%);stroke-opacity:1;stroke-miterlimit:2.613126;" d="M 156.613281 241.362863 L 187.085938 241.362863 L 187.085938 278.503488 L 156.613281 278.503488 Z M 156.613281 241.362863 " transform="matrix(1,0,0,-1,0,611.8863)"/>
<path style="fill-rule:evenodd;fill:rgb(69.804382%,80.392456%,90.98053%);fill-opacity:1;stroke-width:0.216;stroke-linecap:butt;stroke-linejoin:miter;stroke:rgb(0%,0%,0%);stroke-opacity:1;stroke-miterlimit:2.613126;" d="M 126.140625 241.362863 L 156.613281 241.362863 L 156.613281 278.503488 L 126.140625 278.503488 Z M 126.140625 241.362863 " transform="matrix(1,0,0,-1,0,611.8863)"/>
<path style="fill-rule:evenodd;fill:rgb(69.804382%,80.392456%,90.98053%);fill-opacity:1;stroke-width:0.216;stroke-linecap:butt;stroke-linejoin:miter;stroke:rgb(0%,0%,0%);stroke-opacity:1;stroke-miterlimit:2.613126;" d="M 96.378906 241.362863 L 126.140625 241.362863 L 126.140625 278.503488 L 96.378906 278.503488 Z M 96.378906 241.362863 " transform="matrix(1,0,0,-1,0,611.8863)"/>
<path style="fill-rule:evenodd;fill:rgb(69.804382%,80.392456%,90.98053%);fill-opacity:1;stroke-width:0.216;stroke-linecap:butt;stroke-linejoin:miter;stroke:rgb(0%,0%,0%);stroke-opacity:1;stroke-miterlimit:2.613126;" d="M 96.378906 267.874581 L 96.378906 278.503488 L 77.953125 278.503488 L 77.953125 267.874581 Z M 96.378906 267.874581 " transform="matrix(1,0,0,-1,0,611.8863)"/>
<path style="fill-rule:evenodd;fill:rgb(69.804382%,80.392456%,90.98053%);fill-opacity:1;stroke-width:0.216;stroke-linecap:butt;stroke-linejoin:miter;stroke:rgb(0%,0%,0%);stroke-opacity:1;stroke-miterlimit:2.613126;" d="M 96.378906 241.362863 L 96.378906 267.874581 L 77.953125 267.874581 L 77.953125 241.362863 Z M 96.378906 241.362863 " transform="matrix(1,0,0,-1,0,611.8863)"/>
<path style=" stroke:none;fill-rule:evenodd;fill:rgb(22.3526%,38.038635%,18.823242%);fill-opacity:1;" d="M 128.621094 372.359375 C 133.054688 372.359375 136.945313 374.6875 139.136719 378.183594 C 141.390625 375.085938 145.046875 373.066406 149.171875 373.066406 C 154.398438 373.066406 158.867188 376.300781 160.695313 380.871094 C 162.332031 379.976563 164.351563 379.445313 166.535156 379.445313 C 170.40625 379.445313 173.761719 381.109375 175.394531 383.535156 C 175.480469 376.761719 181 371.296875 187.796875 371.296875 C 194.644531 371.296875 200.195313 376.847656 200.195313 383.699219 C 200.195313 390.546875 194.644531 396.097656 187.796875 396.097656 C 182.574219 396.097656 178.105469 392.871094 176.277344 388.300781 C 175.394531 391.734375 171.371094 394.328125 166.535156 394.328125 C 163.832031 394.328125 161.378906 393.515625 159.589844 392.199219 C 157.382813 395.613281 153.542969 397.871094 149.171875 397.871094 C 144.738281 397.871094 140.851563 395.542969 138.65625 392.046875 C 136.402344 395.144531 132.75 397.164063 128.621094 397.164063 C 121.773438 397.164063 116.21875 391.609375 116.21875 384.761719 C 116.21875 377.910156 121.773438 372.359375 128.621094 372.359375 Z M 40.21875 482.253906 C 44.300781 482.714844 47.480469 486.324219 47.480469 490.707031 C 47.480469 495.402344 43.832031 499.210938 39.332031 499.210938 C 36.597656 499.210938 34.179688 497.804688 32.699219 495.652344 C 31.453125 496.117188 30.105469 496.375 28.699219 496.375 C 22.242188 496.375 17.007813 490.980469 17.007813 484.328125 C 17.007813 477.675781 22.242188 472.28125 28.699219 472.28125 C 34.472656 472.28125 39.265625 476.585938 40.21875 482.253906 Z M 31.535156 501.335938 C 34.863281 501.335938 37.558594 503.875 37.558594 507.003906 C 37.558594 510.136719 34.863281 512.675781 31.535156 512.675781 C 28.207031 512.675781 25.511719 510.136719 25.511719 507.003906 C 25.511719 503.875 28.207031 501.335938 31.535156 501.335938 Z M 405 87.476563 C 407.933594 87.476563 410.316406 90.015625 410.316406 93.144531 C 410.316406 96.277344 407.933594 98.816406 405 98.816406 C 404.316406 98.816406 403.660156 98.675781 403.058594 98.425781 C 402.398438 101.085938 399.871094 103.066406 396.851563 103.066406 C 393.328125 103.066406 390.472656 100.371094 390.472656 97.042969 C 390.472656 93.71875 393.328125 91.019531 396.851563 91.019531 C 397.9375 91.019531 398.957031 91.277344 399.851563 91.726563 C 400.441406 89.285156 402.523438 87.476563 405 87.476563 Z M 348.660156 94.984375 C 350.683594 95.296875 352.203125 96.65625 352.203125 98.285156 C 352.203125 100.144531 350.222656 101.652344 347.777344 101.652344 C 346.253906 101.652344 344.910156 101.066406 344.113281 100.179688 C 343.863281 100.214844 343.605469 100.234375 343.347656 100.234375 C 340.410156 100.234375 338.03125 97.851563 338.03125 94.917969 C 338.03125 91.984375 340.410156 89.601563 343.347656 89.601563 C 346.28125 89.601563 348.660156 91.984375 348.660156 94.917969 Z M 378.78125 72.59375 C 384.453125 72.59375 389.054688 77.035156 389.054688 82.515625 C 389.054688 87.996094 384.453125 92.4375 378.78125 92.4375 C 373.105469 92.4375 368.503906 87.996094 368.503906 82.515625 C 368.503906 77.035156 373.105469 72.59375 378.78125 72.59375 Z M 446.8125 88.894531 C 447.300781 88.894531 447.777344 88.945313 448.238281 89.039063 C 447.40625 87.3125 446.941406 85.382813 446.941406 83.34375 C 446.941406 75.976563 453.019531 70 460.519531 70 C 468.015625 70 474.09375 75.976563 474.09375 83.34375 C 474.09375 90.714844 468.015625 96.691406 460.519531 96.691406 C 457.960938 96.691406 455.566406 95.992188 453.523438 94.785156 C 453.535156 94.945313 453.542969 95.109375 453.542969 95.273438 C 453.542969 98.792969 450.527344 101.652344 446.8125 101.652344 C 445.640625 101.652344 444.539063 101.367188 443.582031 100.871094 C 441.371094 103.082031 438.082031 104.484375 434.410156 104.484375 C 427.757813 104.484375 422.363281 99.882813 422.363281 94.210938 C 422.363281 88.535156 427.757813 83.933594 434.410156 83.933594 C 438.910156 83.933594 442.832031 86.039063 444.902344 89.15625 C 445.507813 88.984375 446.148438 88.894531 446.8125 88.894531 Z M 548.503906 85.351563 C 553.984375 85.351563 558.425781 89.316406 558.425781 94.210938 C 558.425781 99.101563 553.984375 103.066406 548.503906 103.066406 C 543.023438 103.066406 538.582031 99.101563 538.582031 94.210938 C 538.582031 89.316406 543.023438 85.351563 548.503906 85.351563 Z M 514.132813 83.933594 C 519.808594 83.933594 524.410156 88.058594 524.410156 93.144531 C 524.410156 98.234375 519.808594 102.359375 514.132813 102.359375 C 511.867188 102.359375 509.769531 101.699219 508.070313 100.585938 C 506.335938 105.339844 501.773438 108.738281 496.417969 108.738281 C 489.566406 108.738281 484.015625 103.183594 484.015625 96.335938 C 484.015625 89.484375 489.566406 83.933594 496.417969 83.933594 C 500.058594 83.933594 503.335938 85.503906 505.605469 88.007813 C 507.449219 85.550781 510.582031 83.933594 514.132813 83.933594 Z M 144.746094 98 C 151.300781 98 156.613281 103.417969 156.613281 110.101563 C 156.613281 116.785156 151.300781 122.203125 144.746094 122.203125 C 138.191406 122.203125 132.878906 116.785156 132.878906 110.101563 C 132.878906 103.417969 138.191406 98 144.746094 98 Z M 24.09375 94.5625 C 25.855469 94.5625 27.285156 96.148438 27.285156 98.105469 C 27.285156 100.0625 25.855469 101.652344 24.09375 101.652344 C 22.332031 101.652344 20.90625 100.0625 20.90625 98.105469 C 20.90625 96.148438 22.332031 94.5625 24.09375 94.5625 Z M 18.816406 73.304688 C 22.164063 73.304688 24.878906 75.699219 24.878906 78.652344 C 24.878906 81.605469 22.164063 84 18.816406 84 C 15.46875 84 12.757813 81.605469 12.757813 78.652344 C 12.757813 75.699219 15.46875 73.304688 18.816406 73.304688 Z M 26.574219 114.40625 C 31.46875 114.40625 35.433594 117.578125 35.433594 121.492188 C 35.433594 125.003906 32.242188 127.917969 28.054688 128.480469 C 31.613281 130.242188 34.015625 133.59375 34.015625 137.4375 C 34.015625 140.59375 32.394531 143.421875 29.84375 145.304688 C 30.300781 145.160156 30.789063 145.085938 31.292969 145.085938 C 33.96875 145.085938 36.140625 147.257813 36.140625 149.941406 C 36.140625 151.980469 34.886719 153.722656 33.113281 154.445313 C 34.886719 155.167969 36.140625 156.910156 36.140625 158.949219 C 36.140625 161.632813 33.96875 163.808594 31.292969 163.808594 C 30.988281 163.808594 30.6875 163.777344 30.398438 163.722656 C 30.445313 164.050781 30.472656 164.382813 30.472656 164.722656 C 30.472656 169.027344 26.347656 172.515625 21.261719 172.515625 C 16.171875 172.515625 12.046875 169.027344 12.046875 164.722656 C 12.046875 163.519531 12.367188 162.382813 12.941406 161.367188 C 9.460938 159.585938 7.085938 156.042969 7.085938 151.964844 C 7.085938 148.105469 9.210938 144.726563 12.394531 142.863281 C 11.277344 141.289063 10.628906 139.429688 10.628906 137.4375 C 10.628906 132.058594 15.332031 127.644531 21.324219 127.199219 C 19.136719 125.910156 17.714844 123.835938 17.714844 121.492188 C 17.714844 117.578125 21.683594 114.40625 26.574219 114.40625 Z M 45.707031 80.390625 C 49.816406 80.390625 53.148438 83.40625 53.148438 87.121094 C 53.148438 87.265625 53.144531 87.410156 53.132813 87.550781 C 53.929688 87.632813 54.699219 87.785156 55.433594 88 C 56.183594 84.46875 59.496094 81.808594 63.46875 81.808594 C 67.992188 81.808594 71.660156 85.261719 71.660156 89.519531 C 71.660156 93.777344 67.992188 97.230469 63.46875 97.230469 C 63.332031 97.230469 63.199219 97.226563 63.066406 97.21875 C 62.957031 102.421875 57.925781 106.609375 51.730469 106.609375 C 45.46875 106.609375 40.394531 102.328125 40.394531 97.042969 C 40.394531 95.496094 40.832031 94.03125 41.605469 92.738281 C 39.59375 91.535156 38.269531 89.46875 38.269531 87.121094 C 38.269531 83.40625 41.597656 80.390625 45.707031 80.390625 Z M 78.1875 95.273438 C 83.800781 95.273438 88.347656 99.015625 88.347656 103.636719 C 88.347656 108.253906 83.800781 112 78.1875 112 C 72.578125 112 68.03125 108.253906 68.03125 103.636719 C 68.03125 99.015625 72.578125 95.273438 78.1875 95.273438 Z M 113.753906 109.402344 C 111.851563 111.988281 108.589844 113.699219 104.882813 113.699219 C 99.011719 113.699219 94.253906 109.414063 94.253906 104.128906 C 94.253906 102.28125 94.835938 100.554688 95.84375 99.09375 C 92.035156 97.96875 89.292969 94.78125 89.292969 91.019531 C 89.292969 86.324219 93.574219 82.515625 98.859375 82.515625 C 102.585938 82.515625 105.8125 84.410156 107.390625 87.171875 C 108.996094 86.460938 110.785156 86.058594 112.675781 86.058594 C 119.527344 86.058594 125.078125 91.292969 125.078125 97.753906 C 125.078125 103.867188 120.097656 108.886719 113.753906 109.402344 Z M 32.242188 189.523438 C 34.003906 189.523438 35.433594 191.269531 35.433594 193.421875 C 35.433594 195.015625 34.648438 196.386719 33.527344 196.992188 C 35.515625 198.21875 36.851563 200.46875 36.851563 203.039063 C 36.851563 206.78125 34.023438 209.839844 30.457031 210.0625 C 30.46875 210.183594 30.472656 210.304688 30.472656 210.429688 C 30.472656 213.363281 27.617188 215.746094 24.09375 215.746094 C 20.570313 215.746094 17.714844 213.363281 17.714844 210.429688 C 17.714844 207.648438 20.277344 205.367188 23.542969 205.136719 C 23.34375 204.472656 23.234375 203.769531 23.234375 203.039063 C 23.234375 199.214844 26.183594 196.105469 29.855469 196.003906 C 29.355469 195.316406 29.054688 194.414063 29.054688 193.421875 C 29.054688 191.269531 30.484375 189.523438 32.242188 189.523438 Z M 30.117188 217.164063 C 33.835938 217.164063 36.851563 220.175781 36.851563 223.894531 C 36.851563 227.058594 34.667969 229.710938 31.726563 230.433594 C 32.722656 231.695313 33.308594 233.226563 33.308594 234.878906 C 33.308594 236.898438 32.433594 238.738281 31.003906 240.125 C 33.96875 241.011719 36.140625 243.878906 36.140625 247.28125 C 36.140625 250.226563 34.507813 252.773438 32.140625 253.980469 C 32.4375 254.765625 32.597656 255.609375 32.597656 256.492188 C 32.597656 258.261719 31.953125 259.882813 30.875 261.160156 C 34.679688 263.109375 37.25 266.796875 37.25 271.019531 C 37.25 277.28125 31.609375 282.359375 24.648438 282.359375 C 17.6875 282.359375 12.046875 277.28125 12.046875 271.019531 C 12.046875 266.714844 14.714844 262.972656 18.640625 261.050781 C 17.617188 259.792969 17.007813 258.210938 17.007813 256.492188 C 17.007813 254.792969 17.605469 253.226563 18.609375 251.972656 C 16.511719 251.742188 14.882813 250.074219 14.882813 248.046875 C 14.882813 245.863281 16.773438 244.089844 19.105469 244.089844 C 20.332031 244.089844 21.433594 244.582031 22.207031 245.363281 C 22.464844 244.351563 22.917969 243.425781 23.523438 242.632813 C 19.066406 242.222656 15.589844 238.910156 15.589844 234.878906 C 15.589844 230.648438 19.417969 227.207031 24.1875 227.085938 C 23.675781 226.136719 23.386719 225.050781 23.386719 223.894531 C 23.386719 220.175781 26.398438 217.164063 30.117188 217.164063 Z M 31.179688 171.808594 C 33.53125 171.808594 35.433594 173.554688 35.433594 175.707031 C 35.433594 177.859375 33.53125 179.601563 31.179688 179.601563 C 28.832031 179.601563 26.929688 177.859375 26.929688 175.707031 C 26.929688 173.554688 28.832031 171.808594 31.179688 171.808594 Z M 28.632813 154.886719 C 28.898438 154.714844 29.179688 154.566406 29.472656 154.445313 C 29.25 154.355469 29.035156 154.246094 28.828125 154.125 C 28.773438 154.382813 28.707031 154.636719 28.632813 154.886719 Z M 27.640625 146.746094 C 27.726563 146.648438 27.8125 146.558594 27.902344 146.46875 C 27.792969 146.523438 27.679688 146.574219 27.570313 146.621094 Z M 159.664063 181.730469 C 164.089844 181.730469 167.679688 184.921875 167.679688 188.863281 C 167.679688 192.804688 164.089844 196 159.664063 196 C 158.246094 196 156.910156 195.671875 155.753906 195.09375 C 154.246094 197.660156 150.914063 199.445313 147.046875 199.445313 L 146.945313 199.445313 C 146.953125 199.625 146.960938 199.804688 146.960938 199.988281 C 146.960938 202.285156 146.207031 204.40625 144.945313 206.097656 C 149.53125 207.082031 152.929688 210.648438 152.929688 214.894531 C 152.929688 217.152344 151.96875 219.21875 150.378906 220.808594 C 152.390625 222.128906 153.78125 224.917969 153.78125 228.144531 C 153.78125 232.648438 151.082031 236.296875 147.757813 236.296875 C 147.5625 236.296875 147.375 236.285156 147.1875 236.257813 L 147.164063 236.371094 C 150.277344 238.222656 152.363281 241.621094 152.363281 245.507813 C 152.363281 245.894531 152.339844 246.273438 152.300781 246.648438 C 153.195313 246.371094 154.171875 246.21875 155.195313 246.21875 C 159.503906 246.21875 162.992188 248.914063 162.992188 252.242188 C 162.992188 255.566406 159.503906 258.265625 155.195313 258.265625 C 151.785156 258.265625 148.890625 256.570313 147.832031 254.214844 C 146.105469 255.425781 144 256.136719 141.730469 256.136719 C 135.863281 256.136719 131.101563 251.378906 131.101563 245.507813 C 131.101563 244.351563 131.289063 243.234375 131.632813 242.191406 C 129.164063 240.394531 127.558594 237.488281 127.558594 234.210938 C 127.558594 228.753906 132 224.332031 137.480469 224.332031 C 139.136719 224.332031 140.699219 224.738281 142.070313 225.453125 C 142.203125 224.929688 142.378906 224.433594 142.585938 223.964844 L 142.371094 223.96875 C 136.539063 223.96875 131.8125 219.90625 131.8125 214.894531 C 131.8125 212.832031 132.613281 210.929688 133.960938 209.40625 C 130.226563 208.015625 127.558594 204.324219 127.558594 199.988281 C 127.558594 194.457031 131.902344 189.972656 137.257813 189.972656 C 137.453125 189.972656 137.644531 189.980469 137.835938 189.992188 C 138.964844 186.859375 142.660156 184.5625 147.046875 184.5625 C 149.035156 184.5625 150.878906 185.035156 152.40625 185.839844 C 153.683594 183.410156 156.453125 181.730469 159.664063 181.730469 Z M 313.710938 339.136719 C 320.878906 339.136719 326.691406 343.558594 326.691406 349.015625 C 326.691406 354.472656 320.878906 358.894531 313.710938 358.894531 C 313.238281 358.894531 312.773438 358.875 312.316406 358.835938 C 310.710938 361.015625 308.070313 362.4375 305.078125 362.4375 C 302.382813 362.4375 299.972656 361.28125 298.347656 359.460938 C 297.035156 360.007813 295.597656 360.3125 294.09375 360.3125 C 287.832031 360.3125 282.757813 355.078125 282.757813 348.617188 C 282.757813 342.160156 287.832031 336.925781 294.09375 336.925781 C 298.226563 336.925781 301.84375 339.207031 303.824219 342.613281 C 306.207031 340.484375 309.75 339.136719 313.710938 339.136719 "/>
</g>
</svg>
