<?xml version="1.0" encoding="UTF-8"?>
<svg xmlns="http://www.w3.org/2000/svg" xmlns:xlink="http://www.w3.org/1999/xlink" width="1499.7543pt" height="1582.7528pt" viewBox="0 0 1499.7543 1582.7528" version="1.1">
<g id="surface1">
<path style=" stroke:none;fill-rule:evenodd;fill:rgb(92.156982%,89.411926%,83.921814%);fill-opacity:1;" d="M 1208.976562 115.824219 L 1281.261719 847.164062 L 1320.945312 1464.40625 C 1229.527344 1468.660156 1145.90625 1479.996094 1050.234375 1480.707031 C 1022.625 1480.738281 989.976562 1476.636719 960.234375 1463.699219 C 933.257812 1455.585938 908.179688 1458.625 884.410156 1469.367188 C 763.492188 1508.675781 618.414062 1528.839844 457.796875 1536.691406 L 335.195312 183.148438 C 584.792969 280.671875 816.167969 260.835938 1036.773438 181.730469 Z M 1208.976562 115.824219 "/>
<path style=" stroke:none;fill-rule:evenodd;fill:rgb(22.3526%,38.038635%,18.823242%);fill-opacity:1;" d="M 778.109375 714.644531 C 784.863281 714.644531 790.609375 719.03125 792.777344 725.171875 C 794.816406 724.324219 797.039062 723.855469 799.371094 723.855469 C 809.15625 723.855469 817.085938 732.105469 817.085938 742.28125 C 817.085938 752.457031 809.15625 760.707031 799.371094 760.707031 C 790.820312 760.707031 783.683594 754.40625 782.019531 746.027344 C 780.769531 746.355469 779.460938 746.53125 778.109375 746.53125 C 769.5 746.53125 762.519531 739.394531 762.519531 730.585938 C 762.519531 721.78125 769.5 714.644531 778.109375 714.644531 Z M 675.886719 355.351562 C 680.875 355.351562 684.921875 359.792969 684.921875 365.273438 C 684.921875 370.75 680.875 375.195312 675.886719 375.195312 C 670.894531 375.195312 666.851562 370.75 666.851562 365.273438 C 666.851562 359.792969 670.894531 355.351562 675.886719 355.351562 Z M 563.738281 353.226562 C 568.632812 353.226562 572.597656 356.558594 572.597656 360.667969 C 572.597656 364.777344 568.632812 368.105469 563.738281 368.105469 C 558.847656 368.105469 554.882812 364.777344 554.882812 360.667969 C 554.882812 356.558594 558.847656 353.226562 563.738281 353.226562 Z M 565.742188 325.585938 C 572.132812 325.585938 577.3125 331.050781 577.3125 337.792969 C 577.3125 344.535156 572.132812 350 565.742188 350 C 561.613281 350 557.988281 347.714844 555.941406 344.28125 C 554.566406 349.816406 549.378906 353.933594 543.1875 353.933594 C 535.949219 353.933594 530.078125 348.300781 530.078125 341.355469 L 530.082031 341.179688 L 530.078125 341.179688 C 522.25 341.179688 515.90625 335.625 515.90625 328.777344 C 515.90625 321.925781 522.25 316.375 530.078125 316.375 C 537.90625 316.375 544.253906 321.925781 544.253906 328.777344 L 544.25 328.816406 C 548.613281 329.152344 552.375 331.539062 554.484375 334.96875 C 555.695312 329.589844 560.273438 325.585938 565.742188 325.585938 Z M 1070.039062 400.675781 C 1069.628906 405.070312 1066.183594 408.5 1061.996094 408.5 C 1057.53125 408.5 1053.914062 404.601562 1053.914062 399.792969 C 1053.914062 397.726562 1054.582031 395.824219 1055.703125 394.332031 C 1054.039062 392.09375 1053.070312 389.414062 1053.070312 386.53125 C 1053.070312 378.703125 1060.210938 372.359375 1069.015625 372.359375 C 1077.820312 372.359375 1084.960938 378.703125 1084.960938 386.53125 C 1084.960938 394.054688 1078.367188 400.207031 1070.039062 400.675781 Z M 610.230469 1067.550781 C 605.511719 1072.351562 598.8125 1075.351562 591.378906 1075.351562 C 577.09375 1075.351562 565.511719 1064.28125 565.511719 1050.621094 C 565.511719 1041.898438 570.238281 1034.230469 577.371094 1029.828125 C 573.070312 1025.492188 570.472656 1019.855469 570.472656 1013.699219 C 570.472656 1000 583.320312 988.894531 599.171875 988.894531 C 615.023438 988.894531 627.875 1000 627.875 1013.699219 C 627.875 1016.820312 627.203125 1019.808594 625.984375 1022.5625 C 631.878906 1027.164062 635.667969 1034.339844 635.667969 1042.398438 C 635.667969 1056.292969 624.40625 1067.554688 610.511719 1067.554688 C 610.417969 1067.554688 610.324219 1067.554688 610.230469 1067.550781 Z M 895.746094 725.273438 C 899.660156 725.273438 902.835938 728.445312 902.835938 732.359375 C 902.835938 736.273438 899.660156 739.445312 895.746094 739.445312 C 894 739.445312 892.402344 738.8125 891.167969 737.765625 C 889.878906 738.386719 888.425781 738.738281 886.890625 738.738281 C 881.605469 738.738281 877.324219 734.613281 877.324219 729.523438 C 877.324219 724.4375 881.605469 720.3125 886.890625 720.3125 C 890.585938 720.3125 893.789062 722.328125 895.382812 725.28125 C 895.503906 725.277344 895.625 725.273438 895.746094 725.273438 Z M 738.78125 736.609375 C 744.847656 736.609375 749.765625 741.527344 749.765625 747.59375 C 749.765625 750.125 748.910156 752.453125 747.472656 754.308594 C 751.917969 756.363281 754.953125 760.476562 754.953125 765.214844 C 754.953125 770.953125 750.503906 775.777344 744.484375 777.136719 C 742.574219 781.648438 738.199219 784.800781 733.109375 784.800781 C 726.261719 784.800781 720.707031 779.089844 720.707031 772.042969 C 720.707031 766.777344 723.8125 762.257812 728.238281 760.3125 C 729.046875 758.667969 730.253906 757.210938 731.746094 756.03125 C 729.332031 754.015625 727.796875 750.984375 727.796875 747.59375 C 727.796875 741.527344 732.714844 736.609375 738.78125 736.609375 "/>
<path style=" stroke:none;fill-rule:evenodd;fill:rgb(48.234558%,48.626709%,56.863403%);fill-opacity:1;" d="M 1070.183594 1172.4375 L 1118.269531 1172.4375 L 1118.269531 1115.746094 L 963.070312 1115.746094 L 963.070312 1144.089844 L 951.023438 1144.089844 L 951.023438 1143.382812 L 882.992188 1143.382812 L 882.992188 1144.089844 L 876.613281 1144.089844 L 876.613281 1143.382812 L 809.292969 1143.382812 L 809.292969 1144.089844 L 803.585938 1144.089844 L 803.585938 1143.382812 L 735.589844 1143.382812 L 735.589844 1106.53125 L 565.511719 1106.53125 L 565.511719 845.746094 L 712.464844 845.746094 L 712.464844 988.894531 L 731.339844 988.894531 L 731.339844 1010.15625 L 941.8125 1010.15625 L 941.8125 1000.941406 L 955.984375 1000.941406 L 955.984375 845.746094 L 1160.789062 845.746094 L 1160.789062 1172.4375 L 1283.492188 1172.4375 L 1283.492188 1348.09375 L 1070.183594 1348.09375 Z M 1070.183594 1172.4375 "/>
<path style="fill:none;stroke-width:0.216;stroke-linecap:butt;stroke-linejoin:miter;stroke:rgb(73.33374%,74.118042%,75.294495%);stroke-opacity:1;stroke-miterlimit:2.613126;" d="M 1273.402344 381.608269 L 1273.402344 272.0028 L 1087.3125 272.030144 L 1087.3125 381.608269 Z M 1273.402344 381.608269 " transform="matrix(1,0,0,-1,0,1582.7528)"/>
<path style="fill:none;stroke-width:0.216;stroke-linecap:butt;stroke-linejoin:miter;stroke:rgb(73.33374%,74.118042%,75.294495%);stroke-opacity:1;stroke-miterlimit:2.613126;" d="M 1179.617188 378.682487 L 1179.894531 273.9403 " transform="matrix(1,0,0,-1,0,1582.7528)"/>
<path style="fill:none;stroke-width:0.216;stroke-linecap:butt;stroke-linejoin:miter;stroke:rgb(73.33374%,74.118042%,75.294495%);stroke-opacity:1;stroke-miterlimit:2.613126;" d="M 1188.019531 324.2528 C 1186.671875 319.541862 1181.882812 316.764519 1177.316406 318.045769 C 1172.753906 319.327019 1170.144531 324.182487 1171.488281 328.889519 C 1172.835938 333.600456 1177.625 336.3778 1182.191406 335.09655 C 1186.753906 333.8153 1189.363281 328.959831 1188.019531 324.2528 Z M 1188.019531 324.2528 " transform="matrix(1,0,0,-1,0,1582.7528)"/>
<path style="fill:none;stroke-width:0.216;stroke-linecap:butt;stroke-linejoin:miter;stroke:rgb(73.33374%,74.118042%,75.294495%);stroke-opacity:1;stroke-miterlimit:2.613126;" d="M 1273.402344 338.174675 L 1232.351562 337.889519 C 1208.738281 337.9403 1208.882812 305.510612 1234.238281 306.213737 L 1273.503906 306.729362 " transform="matrix(1,0,0,-1,0,1582.7528)"/>
<path style="fill:none;stroke-width:0.216;stroke-linecap:butt;stroke-linejoin:miter;stroke:rgb(73.33374%,74.118042%,75.294495%);stroke-opacity:1;stroke-miterlimit:2.613126;" d="M 1233.625 337.901237 L 1234.238281 306.213737 " transform="matrix(1,0,0,-1,0,1582.7528)"/>
<path style="fill:none;stroke-width:0.216;stroke-linecap:butt;stroke-linejoin:miter;stroke:rgb(73.33374%,74.118042%,75.294495%);stroke-opacity:1;stroke-miterlimit:2.613126;" d="M 1087.308594 309.272331 L 1132.371094 308.862175 C 1155.214844 310.248894 1155.335938 340.862175 1130.011719 339.123894 L 1087.3125 339.358269 " transform="matrix(1,0,0,-1,0,1582.7528)"/>
<path style="fill:none;stroke-width:0.216;stroke-linecap:butt;stroke-linejoin:miter;stroke:rgb(73.33374%,74.118042%,75.294495%);stroke-opacity:1;stroke-miterlimit:2.613126;" d="M 1130.664062 339.15905 L 1130.859375 308.873894 " transform="matrix(1,0,0,-1,0,1582.7528)"/>
<path style="fill:none;stroke-width:0.216;stroke-linecap:butt;stroke-linejoin:miter;stroke:rgb(73.33374%,74.118042%,75.294495%);stroke-opacity:1;stroke-miterlimit:2.613126;" d="M 677.480469 708.662956 L 705.828125 708.662956 L 705.828125 681.022331 L 677.480469 681.022331 Z M 677.480469 708.662956 " transform="matrix(1,0,0,-1,0,1582.7528)"/>
<path style="fill:none;stroke-width:0.216;stroke-linecap:butt;stroke-linejoin:miter;stroke:rgb(73.33374%,74.118042%,75.294495%);stroke-opacity:1;stroke-miterlimit:2.613126;" d="M 691.652344 708.662956 L 691.652344 681.022331 " transform="matrix(1,0,0,-1,0,1582.7528)"/>
<path style="fill:none;stroke-width:0.216;stroke-linecap:butt;stroke-linejoin:miter;stroke:rgb(73.33374%,74.118042%,75.294495%);stroke-opacity:1;stroke-miterlimit:2.613126;" d="M 705.828125 694.842644 L 677.480469 694.842644 " transform="matrix(1,0,0,-1,0,1582.7528)"/>
<path style="fill:none;stroke-width:0.216;stroke-linecap:butt;stroke-linejoin:miter;stroke:rgb(73.33374%,74.118042%,75.294495%);stroke-opacity:1;stroke-miterlimit:2.613126;" d="M 636.378906 708.662956 L 664.722656 708.662956 L 664.722656 681.022331 L 636.378906 681.022331 Z M 636.378906 708.662956 " transform="matrix(1,0,0,-1,0,1582.7528)"/>
<path style="fill:none;stroke-width:0.216;stroke-linecap:butt;stroke-linejoin:miter;stroke:rgb(73.33374%,74.118042%,75.294495%);stroke-opacity:1;stroke-miterlimit:2.613126;" d="M 650.550781 708.662956 L 650.550781 681.022331 " transform="matrix(1,0,0,-1,0,1582.7528)"/>
<path style="fill:none;stroke-width:0.216;stroke-linecap:butt;stroke-linejoin:miter;stroke:rgb(73.33374%,74.118042%,75.294495%);stroke-opacity:1;stroke-miterlimit:2.613126;" d="M 664.722656 694.842644 L 636.378906 694.842644 " transform="matrix(1,0,0,-1,0,1582.7528)"/>
<path style="fill:none;stroke-width:0.216;stroke-linecap:butt;stroke-linejoin:miter;stroke:rgb(73.33374%,74.118042%,75.294495%);stroke-opacity:1;stroke-miterlimit:2.613126;" d="M 638.503906 666.143425 L 666.851562 666.143425 L 666.851562 638.5028 L 638.503906 638.5028 Z M 638.503906 666.143425 " transform="matrix(1,0,0,-1,0,1582.7528)"/>
<path style="fill:none;stroke-width:0.216;stroke-linecap:butt;stroke-linejoin:miter;stroke:rgb(73.33374%,74.118042%,75.294495%);stroke-opacity:1;stroke-miterlimit:2.613126;" d="M 652.675781 666.143425 L 652.675781 638.5028 " transform="matrix(1,0,0,-1,0,1582.7528)"/>
<path style="fill:none;stroke-width:0.216;stroke-linecap:butt;stroke-linejoin:miter;stroke:rgb(73.33374%,74.118042%,75.294495%);stroke-opacity:1;stroke-miterlimit:2.613126;" d="M 666.851562 652.323112 L 638.503906 652.323112 " transform="matrix(1,0,0,-1,0,1582.7528)"/>
<path style="fill:none;stroke-width:0.216;stroke-linecap:butt;stroke-linejoin:miter;stroke:rgb(73.33374%,74.118042%,75.294495%);stroke-opacity:1;stroke-miterlimit:2.613126;" d="M 680.316406 667.557487 L 708.660156 667.557487 L 708.660156 639.920769 L 680.316406 639.920769 Z M 680.316406 667.557487 " transform="matrix(1,0,0,-1,0,1582.7528)"/>
<path style="fill:none;stroke-width:0.216;stroke-linecap:butt;stroke-linejoin:miter;stroke:rgb(73.33374%,74.118042%,75.294495%);stroke-opacity:1;stroke-miterlimit:2.613126;" d="M 694.488281 667.557487 L 694.488281 639.920769 " transform="matrix(1,0,0,-1,0,1582.7528)"/>
<path style="fill:none;stroke-width:0.216;stroke-linecap:butt;stroke-linejoin:miter;stroke:rgb(73.33374%,74.118042%,75.294495%);stroke-opacity:1;stroke-miterlimit:2.613126;" d="M 708.660156 653.741081 L 680.316406 653.741081 " transform="matrix(1,0,0,-1,0,1582.7528)"/>
<path style="fill:none;stroke-width:0.216;stroke-linecap:butt;stroke-linejoin:miter;stroke:rgb(73.33374%,74.118042%,75.294495%);stroke-opacity:1;stroke-miterlimit:2.613126;" d="M 681.023438 627.518425 L 709.371094 627.518425 L 709.371094 599.881706 L 681.023438 599.881706 Z M 681.023438 627.518425 " transform="matrix(1,0,0,-1,0,1582.7528)"/>
<path style="fill:none;stroke-width:0.216;stroke-linecap:butt;stroke-linejoin:miter;stroke:rgb(73.33374%,74.118042%,75.294495%);stroke-opacity:1;stroke-miterlimit:2.613126;" d="M 695.195312 627.518425 L 695.195312 599.881706 " transform="matrix(1,0,0,-1,0,1582.7528)"/>
<path style="fill:none;stroke-width:0.216;stroke-linecap:butt;stroke-linejoin:miter;stroke:rgb(73.33374%,74.118042%,75.294495%);stroke-opacity:1;stroke-miterlimit:2.613126;" d="M 709.371094 613.702019 L 681.023438 613.702019 " transform="matrix(1,0,0,-1,0,1582.7528)"/>
<path style="fill:none;stroke-width:0.216;stroke-linecap:butt;stroke-linejoin:miter;stroke:rgb(73.33374%,74.118042%,75.294495%);stroke-opacity:1;stroke-miterlimit:2.613126;" d="M 640.628906 624.686394 L 668.976562 624.686394 L 668.976562 597.045769 L 640.628906 597.045769 Z M 640.628906 624.686394 " transform="matrix(1,0,0,-1,0,1582.7528)"/>
<path style="fill:none;stroke-width:0.216;stroke-linecap:butt;stroke-linejoin:miter;stroke:rgb(73.33374%,74.118042%,75.294495%);stroke-opacity:1;stroke-miterlimit:2.613126;" d="M 654.804688 624.686394 L 654.804688 597.045769 " transform="matrix(1,0,0,-1,0,1582.7528)"/>
<path style="fill:none;stroke-width:0.216;stroke-linecap:butt;stroke-linejoin:miter;stroke:rgb(73.33374%,74.118042%,75.294495%);stroke-opacity:1;stroke-miterlimit:2.613126;" d="M 668.976562 610.866081 L 640.628906 610.866081 " transform="matrix(1,0,0,-1,0,1582.7528)"/>
<path style="fill:none;stroke-width:0.216;stroke-linecap:butt;stroke-linejoin:miter;stroke:rgb(73.33374%,74.118042%,75.294495%);stroke-opacity:1;stroke-miterlimit:2.613126;" d="M 667.914062 565.510612 C 679.460938 565.510612 688.820312 555.994987 688.820312 544.2528 C 688.820312 532.510612 679.460938 522.991081 667.914062 522.991081 C 656.367188 522.991081 647.007812 532.510612 647.007812 544.2528 C 647.007812 555.994987 656.367188 565.510612 667.914062 565.510612 Z M 667.914062 565.510612 " transform="matrix(1,0,0,-1,0,1582.7528)"/>
<path style="fill:none;stroke-width:0.216;stroke-linecap:butt;stroke-linejoin:miter;stroke:rgb(73.33374%,74.118042%,75.294495%);stroke-opacity:1;stroke-miterlimit:2.613126;" d="M 716.101562 574.725456 C 727.648438 574.725456 737.007812 565.205925 737.007812 553.463737 C 737.007812 541.72155 727.648438 532.205925 716.101562 532.205925 C 704.554688 532.205925 695.195312 541.72155 695.195312 553.463737 C 695.195312 565.205925 704.554688 574.725456 716.101562 574.725456 Z M 716.101562 574.725456 " transform="matrix(1,0,0,-1,0,1582.7528)"/>
<path style="fill:none;stroke-width:0.216;stroke-linecap:butt;stroke-linejoin:miter;stroke:rgb(73.33374%,74.118042%,75.294495%);stroke-opacity:1;stroke-miterlimit:2.613126;" d="M 746.21875 527.952019 C 757.765625 527.952019 767.125 518.436394 767.125 506.694206 C 767.125 494.952019 757.765625 485.432487 746.21875 485.432487 C 734.675781 485.432487 725.316406 494.952019 725.316406 506.694206 C 725.316406 518.436394 734.675781 527.952019 746.21875 527.952019 Z M 746.21875 527.952019 " transform="matrix(1,0,0,-1,0,1582.7528)"/>
<path style="fill:none;stroke-width:0.216;stroke-linecap:butt;stroke-linejoin:miter;stroke:rgb(73.33374%,74.118042%,75.294495%);stroke-opacity:1;stroke-miterlimit:2.613126;" d="M 727.824219 516.799675 L 764.34375 496.088737 " transform="matrix(1,0,0,-1,0,1582.7528)"/>
<path style="fill:none;stroke-width:0.216;stroke-linecap:butt;stroke-linejoin:miter;stroke:rgb(73.33374%,74.118042%,75.294495%);stroke-opacity:1;stroke-miterlimit:2.613126;" d="M 766.832031 510.268425 L 725.316406 506.694206 " transform="matrix(1,0,0,-1,0,1582.7528)"/>
<path style="fill:none;stroke-width:0.216;stroke-linecap:butt;stroke-linejoin:miter;stroke:rgb(73.33374%,74.118042%,75.294495%);stroke-opacity:1;stroke-miterlimit:2.613126;" d="M 794.410156 527.952019 C 805.957031 527.952019 815.316406 518.436394 815.316406 506.694206 C 815.316406 494.952019 805.957031 485.432487 794.410156 485.432487 C 782.863281 485.432487 773.503906 494.952019 773.503906 506.694206 C 773.503906 518.436394 782.863281 527.952019 794.410156 527.952019 Z M 794.410156 527.952019 " transform="matrix(1,0,0,-1,0,1582.7528)"/>
<path style="fill:none;stroke-width:0.216;stroke-linecap:butt;stroke-linejoin:miter;stroke:rgb(73.33374%,74.118042%,75.294495%);stroke-opacity:1;stroke-miterlimit:2.613126;" d="M 776.011719 516.799675 L 812.53125 496.088737 " transform="matrix(1,0,0,-1,0,1582.7528)"/>
<path style="fill:none;stroke-width:0.216;stroke-linecap:butt;stroke-linejoin:miter;stroke:rgb(73.33374%,74.118042%,75.294495%);stroke-opacity:1;stroke-miterlimit:2.613126;" d="M 815.019531 510.268425 L 773.503906 506.694206 " transform="matrix(1,0,0,-1,0,1582.7528)"/>
<path style="fill:none;stroke-width:0.216;stroke-linecap:butt;stroke-linejoin:miter;stroke:rgb(73.33374%,74.118042%,75.294495%);stroke-opacity:1;stroke-miterlimit:2.613126;" d="M 852.164062 570.639519 C 869.191406 570.639519 882.992188 556.604362 882.992188 539.291862 C 882.992188 521.979362 869.191406 507.9403 852.164062 507.9403 C 835.140625 507.9403 821.339844 521.979362 821.339844 539.291862 C 821.339844 556.604362 835.140625 570.639519 852.164062 570.639519 Z M 852.164062 570.639519 " transform="matrix(1,0,0,-1,0,1582.7528)"/>
<path style="fill:none;stroke-width:0.216;stroke-linecap:butt;stroke-linejoin:miter;stroke:rgb(73.33374%,74.118042%,75.294495%);stroke-opacity:1;stroke-miterlimit:2.613126;" d="M 911.691406 528.662956 C 923.238281 528.662956 932.597656 519.143425 932.597656 507.401237 C 932.597656 495.65905 923.238281 486.143425 911.691406 486.143425 C 900.148438 486.143425 890.789062 495.65905 890.789062 507.401237 C 890.789062 519.143425 900.148438 528.662956 911.691406 528.662956 Z M 911.691406 528.662956 " transform="matrix(1,0,0,-1,0,1582.7528)"/>
<path style="fill:none;stroke-width:0.216;stroke-linecap:butt;stroke-linejoin:miter;stroke:rgb(73.33374%,74.118042%,75.294495%);stroke-opacity:1;stroke-miterlimit:2.613126;" d="M 893.296875 517.506706 L 929.816406 496.795769 " transform="matrix(1,0,0,-1,0,1582.7528)"/>
<path style="fill:none;stroke-width:0.216;stroke-linecap:butt;stroke-linejoin:miter;stroke:rgb(73.33374%,74.118042%,75.294495%);stroke-opacity:1;stroke-miterlimit:2.613126;" d="M 932.304688 510.979362 L 890.789062 507.401237 " transform="matrix(1,0,0,-1,0,1582.7528)"/>
<path style="fill:none;stroke-width:0.216;stroke-linecap:butt;stroke-linejoin:miter;stroke:rgb(73.33374%,74.118042%,75.294495%);stroke-opacity:1;stroke-miterlimit:2.613126;" d="M 963.496094 529.268425 C 975.042969 529.268425 984.402344 519.748894 984.402344 508.006706 C 984.402344 496.264519 975.042969 486.748894 963.496094 486.748894 C 951.949219 486.748894 942.589844 496.264519 942.589844 508.006706 C 942.589844 519.748894 951.949219 529.268425 963.496094 529.268425 Z M 963.496094 529.268425 " transform="matrix(1,0,0,-1,0,1582.7528)"/>
<path style="fill:none;stroke-width:0.216;stroke-linecap:butt;stroke-linejoin:miter;stroke:rgb(73.33374%,74.118042%,75.294495%);stroke-opacity:1;stroke-miterlimit:2.613126;" d="M 945.097656 518.112175 L 981.617188 497.401237 " transform="matrix(1,0,0,-1,0,1582.7528)"/>
<path style="fill:none;stroke-width:0.216;stroke-linecap:butt;stroke-linejoin:miter;stroke:rgb(73.33374%,74.118042%,75.294495%);stroke-opacity:1;stroke-miterlimit:2.613126;" d="M 984.105469 511.584831 L 942.589844 508.006706 " transform="matrix(1,0,0,-1,0,1582.7528)"/>
<path style="fill:none;stroke-width:0.216;stroke-linecap:butt;stroke-linejoin:miter;stroke:rgb(73.33374%,74.118042%,75.294495%);stroke-opacity:1;stroke-miterlimit:2.613126;" d="M 960.796875 593.858269 L 994.230469 593.858269 L 994.230469 561.260612 L 960.796875 561.260612 Z M 960.796875 593.858269 " transform="matrix(1,0,0,-1,0,1582.7528)"/>
<path style="fill:none;stroke-width:0.216;stroke-linecap:butt;stroke-linejoin:miter;stroke:rgb(73.33374%,74.118042%,75.294495%);stroke-opacity:1;stroke-miterlimit:2.613126;" d="M 977.515625 593.858269 L 977.515625 561.260612 " transform="matrix(1,0,0,-1,0,1582.7528)"/>
<path style="fill:none;stroke-width:0.216;stroke-linecap:butt;stroke-linejoin:miter;stroke:rgb(73.33374%,74.118042%,75.294495%);stroke-opacity:1;stroke-miterlimit:2.613126;" d="M 994.230469 577.557487 L 960.796875 577.557487 " transform="matrix(1,0,0,-1,0,1582.7528)"/>
<path style="fill:none;stroke-width:0.216;stroke-linecap:butt;stroke-linejoin:miter;stroke:rgb(73.33374%,74.118042%,75.294495%);stroke-opacity:1;stroke-miterlimit:2.613126;" d="M 960.945312 639.920769 L 994.378906 639.920769 L 994.378906 607.323112 L 960.945312 607.323112 Z M 960.945312 639.920769 " transform="matrix(1,0,0,-1,0,1582.7528)"/>
<path style="fill:none;stroke-width:0.216;stroke-linecap:butt;stroke-linejoin:miter;stroke:rgb(73.33374%,74.118042%,75.294495%);stroke-opacity:1;stroke-miterlimit:2.613126;" d="M 977.660156 639.920769 L 977.660156 607.323112 " transform="matrix(1,0,0,-1,0,1582.7528)"/>
<path style="fill:none;stroke-width:0.216;stroke-linecap:butt;stroke-linejoin:miter;stroke:rgb(73.33374%,74.118042%,75.294495%);stroke-opacity:1;stroke-miterlimit:2.613126;" d="M 994.378906 623.623894 L 960.945312 623.623894 " transform="matrix(1,0,0,-1,0,1582.7528)"/>
<path style="fill:none;stroke-width:0.216;stroke-linecap:butt;stroke-linejoin:miter;stroke:rgb(73.33374%,74.118042%,75.294495%);stroke-opacity:1;stroke-miterlimit:2.613126;" d="M 1103.675781 668.268425 L 1137.109375 668.268425 L 1137.109375 635.670769 L 1103.675781 635.670769 Z M 1103.675781 668.268425 " transform="matrix(1,0,0,-1,0,1582.7528)"/>
<path style="fill:none;stroke-width:0.216;stroke-linecap:butt;stroke-linejoin:miter;stroke:rgb(73.33374%,74.118042%,75.294495%);stroke-opacity:1;stroke-miterlimit:2.613126;" d="M 1120.394531 668.268425 L 1120.394531 635.670769 " transform="matrix(1,0,0,-1,0,1582.7528)"/>
<path style="fill:none;stroke-width:0.216;stroke-linecap:butt;stroke-linejoin:miter;stroke:rgb(73.33374%,74.118042%,75.294495%);stroke-opacity:1;stroke-miterlimit:2.613126;" d="M 1137.109375 651.967644 L 1103.675781 651.967644 " transform="matrix(1,0,0,-1,0,1582.7528)"/>
<path style="fill:none;stroke-width:0.216;stroke-linecap:butt;stroke-linejoin:miter;stroke:rgb(73.33374%,74.118042%,75.294495%);stroke-opacity:1;stroke-miterlimit:2.613126;" d="M 1104.675781 624.330925 L 1138.109375 624.330925 L 1138.109375 591.733269 L 1104.675781 591.733269 Z M 1104.675781 624.330925 " transform="matrix(1,0,0,-1,0,1582.7528)"/>
<path style="fill:none;stroke-width:0.216;stroke-linecap:butt;stroke-linejoin:miter;stroke:rgb(73.33374%,74.118042%,75.294495%);stroke-opacity:1;stroke-miterlimit:2.613126;" d="M 1121.394531 624.330925 L 1121.394531 591.733269 " transform="matrix(1,0,0,-1,0,1582.7528)"/>
<path style="fill:none;stroke-width:0.216;stroke-linecap:butt;stroke-linejoin:miter;stroke:rgb(73.33374%,74.118042%,75.294495%);stroke-opacity:1;stroke-miterlimit:2.613126;" d="M 1138.109375 608.030144 L 1104.675781 608.030144 " transform="matrix(1,0,0,-1,0,1582.7528)"/>
<path style="fill:none;stroke-width:0.216;stroke-linecap:butt;stroke-linejoin:miter;stroke:rgb(73.33374%,74.118042%,75.294495%);stroke-opacity:1;stroke-miterlimit:2.613126;" d="M 1104.386719 566.928581 L 1137.820312 566.928581 L 1137.820312 534.330925 L 1104.386719 534.330925 Z M 1104.386719 566.928581 " transform="matrix(1,0,0,-1,0,1582.7528)"/>
<path style="fill:none;stroke-width:0.216;stroke-linecap:butt;stroke-linejoin:miter;stroke:rgb(73.33374%,74.118042%,75.294495%);stroke-opacity:1;stroke-miterlimit:2.613126;" d="M 1121.101562 566.928581 L 1121.101562 534.330925 " transform="matrix(1,0,0,-1,0,1582.7528)"/>
<path style="fill:none;stroke-width:0.216;stroke-linecap:butt;stroke-linejoin:miter;stroke:rgb(73.33374%,74.118042%,75.294495%);stroke-opacity:1;stroke-miterlimit:2.613126;" d="M 1137.820312 550.631706 L 1104.386719 550.631706 " transform="matrix(1,0,0,-1,0,1582.7528)"/>
<path style="fill:none;stroke-width:0.216;stroke-linecap:butt;stroke-linejoin:miter;stroke:rgb(73.33374%,74.118042%,75.294495%);stroke-opacity:1;stroke-miterlimit:2.613126;" d="M 1106.445312 521.049675 L 1139.882812 521.049675 L 1139.882812 488.452019 L 1106.445312 488.452019 Z M 1106.445312 521.049675 " transform="matrix(1,0,0,-1,0,1582.7528)"/>
<path style="fill:none;stroke-width:0.216;stroke-linecap:butt;stroke-linejoin:miter;stroke:rgb(73.33374%,74.118042%,75.294495%);stroke-opacity:1;stroke-miterlimit:2.613126;" d="M 1123.164062 521.049675 L 1123.164062 488.452019 " transform="matrix(1,0,0,-1,0,1582.7528)"/>
<path style="fill:none;stroke-width:0.216;stroke-linecap:butt;stroke-linejoin:miter;stroke:rgb(73.33374%,74.118042%,75.294495%);stroke-opacity:1;stroke-miterlimit:2.613126;" d="M 1139.882812 504.748894 L 1106.445312 504.748894 " transform="matrix(1,0,0,-1,0,1582.7528)"/>
<path style="fill:none;stroke-width:0.216;stroke-linecap:butt;stroke-linejoin:miter;stroke:rgb(73.33374%,74.118042%,75.294495%);stroke-opacity:1;stroke-miterlimit:2.613126;" d="M 1000.503906 714.330925 L 1033.9375 714.330925 L 1033.9375 681.733269 L 1000.503906 681.733269 Z M 1000.503906 714.330925 " transform="matrix(1,0,0,-1,0,1582.7528)"/>
<path style="fill:none;stroke-width:0.216;stroke-linecap:butt;stroke-linejoin:miter;stroke:rgb(73.33374%,74.118042%,75.294495%);stroke-opacity:1;stroke-miterlimit:2.613126;" d="M 1017.21875 714.330925 L 1017.21875 681.733269 " transform="matrix(1,0,0,-1,0,1582.7528)"/>
<path style="fill:none;stroke-width:0.216;stroke-linecap:butt;stroke-linejoin:miter;stroke:rgb(73.33374%,74.118042%,75.294495%);stroke-opacity:1;stroke-miterlimit:2.613126;" d="M 1033.9375 698.030144 L 1000.503906 698.030144 " transform="matrix(1,0,0,-1,0,1582.7528)"/>
<path style="fill:none;stroke-width:0.216;stroke-linecap:butt;stroke-linejoin:miter;stroke:rgb(73.33374%,74.118042%,75.294495%);stroke-opacity:1;stroke-miterlimit:2.613126;" d="M 1045.277344 712.912956 L 1078.710938 712.912956 L 1078.710938 680.3153 L 1045.277344 680.3153 Z M 1045.277344 712.912956 " transform="matrix(1,0,0,-1,0,1582.7528)"/>
<path style="fill:none;stroke-width:0.216;stroke-linecap:butt;stroke-linejoin:miter;stroke:rgb(73.33374%,74.118042%,75.294495%);stroke-opacity:1;stroke-miterlimit:2.613126;" d="M 1061.992188 712.912956 L 1061.992188 680.3153 " transform="matrix(1,0,0,-1,0,1582.7528)"/>
<path style="fill:none;stroke-width:0.216;stroke-linecap:butt;stroke-linejoin:miter;stroke:rgb(73.33374%,74.118042%,75.294495%);stroke-opacity:1;stroke-miterlimit:2.613126;" d="M 1078.710938 696.616081 L 1045.277344 696.616081 " transform="matrix(1,0,0,-1,0,1582.7528)"/>
<path style="fill:none;stroke-width:0.216;stroke-linecap:butt;stroke-linejoin:miter;stroke:rgb(73.33374%,74.118042%,75.294495%);stroke-opacity:1;stroke-miterlimit:2.613126;" d="M 997.257812 667.272331 L 1096.785156 667.682487 L 1096.589844 486.553581 L 997.085938 486.143425 Z M 997.257812 667.272331 " transform="matrix(1,0,0,-1,0,1582.7528)"/>
<path style="fill:none;stroke-width:0.216;stroke-linecap:butt;stroke-linejoin:miter;stroke:rgb(73.33374%,74.118042%,75.294495%);stroke-opacity:1;stroke-miterlimit:2.613126;" d="M 999.828125 575.994987 L 1094.9375 576.662956 " transform="matrix(1,0,0,-1,0,1582.7528)"/>
<path style="fill:none;stroke-width:0.216;stroke-linecap:butt;stroke-linejoin:miter;stroke:rgb(73.33374%,74.118042%,75.294495%);stroke-opacity:1;stroke-miterlimit:2.613126;" d="M 1049.261719 584.381706 C 1053.535156 583.088737 1056.054688 578.436394 1054.886719 573.991081 C 1053.71875 569.541862 1049.304688 566.983269 1045.03125 568.276237 C 1040.757812 569.5653 1038.238281 574.22155 1039.40625 578.666862 C 1040.574219 583.116081 1044.984375 585.674675 1049.261719 584.381706 Z M 1049.261719 584.381706 " transform="matrix(1,0,0,-1,0,1582.7528)"/>
<path style="fill:none;stroke-width:0.216;stroke-linecap:butt;stroke-linejoin:miter;stroke:rgb(73.33374%,74.118042%,75.294495%);stroke-opacity:1;stroke-miterlimit:2.613126;" d="M 1036.695312 667.436394 L 1036.914062 627.479362 C 1036.851562 604.498894 1066.296875 604.760612 1065.683594 629.436394 L 1065.25 667.651237 " transform="matrix(1,0,0,-1,0,1582.7528)"/>
<path style="fill:none;stroke-width:0.216;stroke-linecap:butt;stroke-linejoin:miter;stroke:rgb(73.33374%,74.118042%,75.294495%);stroke-opacity:1;stroke-miterlimit:2.613126;" d="M 1036.910156 628.72155 L 1065.683594 629.436394 " transform="matrix(1,0,0,-1,0,1582.7528)"/>
<path style="fill:none;stroke-width:0.216;stroke-linecap:butt;stroke-linejoin:miter;stroke:rgb(73.33374%,74.118042%,75.294495%);stroke-opacity:1;stroke-miterlimit:2.613126;" d="M 1062.769531 486.412956 L 1063.183594 530.276237 C 1061.945312 552.506706 1034.144531 552.506706 1035.703125 527.866081 L 1035.449219 486.299675 " transform="matrix(1,0,0,-1,0,1582.7528)"/>
<path style="fill:none;stroke-width:0.216;stroke-linecap:butt;stroke-linejoin:miter;stroke:rgb(73.33374%,74.118042%,75.294495%);stroke-opacity:1;stroke-miterlimit:2.613126;" d="M 1035.667969 528.498894 L 1063.171875 528.803581 " transform="matrix(1,0,0,-1,0,1582.7528)"/>
<path style=" stroke:none;fill-rule:evenodd;fill:rgb(76.078796%,73.725891%,69.412231%);fill-opacity:1;" d="M 833.386719 256.136719 L 1039.605469 256.136719 L 1039.605469 360.492188 L 1049.527344 360.492188 L 1049.527344 403.539062 L 833.386719 403.539062 Z M 833.386719 256.136719 "/>
<path style="fill:none;stroke-width:0.216;stroke-linecap:butt;stroke-linejoin:miter;stroke:rgb(90.196228%,90.588379%,90.98053%);stroke-opacity:1;stroke-miterlimit:2.613126;" d="M 862.917969 1274.7528 L 862.917969 1326.616081 " transform="matrix(1,0,0,-1,0,1582.7528)"/>
<path style="fill:none;stroke-width:0.216;stroke-linecap:butt;stroke-linejoin:miter;stroke:rgb(90.196228%,90.588379%,90.98053%);stroke-opacity:1;stroke-miterlimit:2.613126;" d="M 889.917969 1274.7528 L 889.917969 1326.616081 " transform="matrix(1,0,0,-1,0,1582.7528)"/>
<path style="fill:none;stroke-width:0.216;stroke-linecap:butt;stroke-linejoin:miter;stroke:rgb(90.196228%,90.588379%,90.98053%);stroke-opacity:1;stroke-miterlimit:2.613126;" d="M 914.964844 1274.7528 L 914.964844 1326.616081 " transform="matrix(1,0,0,-1,0,1582.7528)"/>
<path style="fill:none;stroke-width:0.216;stroke-linecap:butt;stroke-linejoin:miter;stroke:rgb(90.196228%,90.588379%,90.98053%);stroke-opacity:1;stroke-miterlimit:2.613126;" d="M 939.265625 1274.7528 L 939.265625 1326.616081 " transform="matrix(1,0,0,-1,0,1582.7528)"/>
<path style="fill:none;stroke-width:0.216;stroke-linecap:butt;stroke-linejoin:miter;stroke:rgb(90.196228%,90.588379%,90.98053%);stroke-opacity:1;stroke-miterlimit:2.613126;" d="M 963.566406 1274.7528 L 963.566406 1326.616081 " transform="matrix(1,0,0,-1,0,1582.7528)"/>
<path style="fill:none;stroke-width:0.216;stroke-linecap:butt;stroke-linejoin:miter;stroke:rgb(90.196228%,90.588379%,90.98053%);stroke-opacity:1;stroke-miterlimit:2.613126;" d="M 995.667969 1274.7528 L 995.667969 1326.616081 " transform="matrix(1,0,0,-1,0,1582.7528)"/>
<path style="fill:none;stroke-width:0.216;stroke-linecap:butt;stroke-linejoin:miter;stroke:rgb(90.196228%,90.588379%,90.98053%);stroke-opacity:1;stroke-miterlimit:2.613126;" d="M 1007.367188 1181.209831 L 1007.367188 1233.069206 " transform="matrix(1,0,0,-1,0,1582.7528)"/>
<path style="fill:none;stroke-width:0.216;stroke-linecap:butt;stroke-linejoin:miter;stroke:rgb(90.196228%,90.588379%,90.98053%);stroke-opacity:1;stroke-miterlimit:2.613126;" d="M 975.867188 1181.209831 L 975.867188 1233.069206 " transform="matrix(1,0,0,-1,0,1582.7528)"/>
<path style="fill:none;stroke-width:0.216;stroke-linecap:butt;stroke-linejoin:miter;stroke:rgb(90.196228%,90.588379%,90.98053%);stroke-opacity:1;stroke-miterlimit:2.613126;" d="M 944.367188 1181.209831 L 944.367188 1233.069206 " transform="matrix(1,0,0,-1,0,1582.7528)"/>
<path style="fill:none;stroke-width:0.216;stroke-linecap:butt;stroke-linejoin:miter;stroke:rgb(90.196228%,90.588379%,90.98053%);stroke-opacity:1;stroke-miterlimit:2.613126;" d="M 909.265625 1181.209831 L 909.265625 1233.069206 " transform="matrix(1,0,0,-1,0,1582.7528)"/>
<path style="fill:none;stroke-width:0.216;stroke-linecap:butt;stroke-linejoin:miter;stroke:rgb(90.196228%,90.588379%,90.98053%);stroke-opacity:1;stroke-miterlimit:2.613126;" d="M 868.167969 1181.209831 L 868.167969 1233.069206 " transform="matrix(1,0,0,-1,0,1582.7528)"/>
<path style="fill-rule:evenodd;fill:rgb(90.196228%,90.588379%,90.98053%);fill-opacity:1;stroke-width:0.216;stroke-linecap:butt;stroke-linejoin:miter;stroke:rgb(0%,0%,0%);stroke-opacity:1;stroke-miterlimit:2.613126;" d="M 513.78125 1096.299675 L 564.804688 1096.299675 L 564.804688 1021.182487 L 581.808594 1021.182487 L 581.8125 1022.7528 L 581.8125 1068.662956 L 612.992188 1068.662956 L 612.992188 1123.229362 L 644.03125 1123.229362 L 644.03125 1152.28405 L 702.527344 1152.28405 L 702.527344 1185.588737 L 664.722656 1185.588737 L 664.722656 1206.139519 L 513.78125 1206.139519 Z M 513.78125 1096.299675 " transform="matrix(1,0,0,-1,0,1582.7528)"/>
<path style="fill-rule:evenodd;fill:rgb(90.196228%,90.588379%,90.98053%);fill-opacity:1;stroke-width:0.216;stroke-linecap:butt;stroke-linejoin:miter;stroke:rgb(0%,0%,0%);stroke-opacity:1;stroke-miterlimit:2.613126;" d="M 1084.253906 1008.424675 L 1084.253906 1043.858269 L 1055.195312 1043.858269 L 1055.195312 1008.424675 Z M 1084.253906 1008.424675 " transform="matrix(1,0,0,-1,0,1582.7528)"/>
<path style="fill-rule:evenodd;fill:rgb(72.549438%,75.686646%,60.784912%);fill-opacity:1;stroke-width:0.216;stroke-linecap:butt;stroke-linejoin:miter;stroke:rgb(0%,0%,0%);stroke-opacity:1;stroke-miterlimit:2.613126;" d="M 868.109375 702.991081 L 940.394531 702.991081 L 940.394531 724.2528 L 868.109375 724.2528 Z M 868.109375 702.991081 " transform="matrix(1,0,0,-1,0,1582.7528)"/>
<path style="fill-rule:evenodd;fill:rgb(72.549438%,75.686646%,60.784912%);fill-opacity:1;stroke-width:0.216;stroke-linecap:butt;stroke-linejoin:miter;stroke:rgb(0%,0%,0%);stroke-opacity:1;stroke-miterlimit:2.613126;" d="M 773.859375 878.741081 L 754.722656 879.448112 L 754.722656 928.34655 L 759.683594 934.725456 L 807.164062 934.725456 L 810 919.135612 Z M 773.859375 878.741081 " transform="matrix(1,0,0,-1,0,1582.7528)"/>
<path style="fill-rule:evenodd;fill:rgb(72.549438%,75.686646%,60.784912%);fill-opacity:1;stroke-width:0.216;stroke-linecap:butt;stroke-linejoin:miter;stroke:rgb(0%,0%,0%);stroke-opacity:1;stroke-miterlimit:2.613126;" d="M 755.433594 822.045769 L 771.023438 822.756706 L 809.292969 783.010612 L 809.292969 765.15905 L 761.101562 765.354362 L 754.015625 772.4403 Z M 755.433594 822.045769 " transform="matrix(1,0,0,-1,0,1582.7528)"/>
<path style="fill-rule:evenodd;fill:rgb(72.549438%,75.686646%,60.784912%);fill-opacity:1;stroke-width:0.216;stroke-linecap:butt;stroke-linejoin:miter;stroke:rgb(0%,0%,0%);stroke-opacity:1;stroke-miterlimit:2.613126;" d="M 920.550781 769.604362 L 915.589844 763.936394 L 868.109375 763.936394 L 861.023438 778.108269 L 905.667969 823.463737 L 921.261719 822.756706 Z M 920.550781 769.604362 " transform="matrix(1,0,0,-1,0,1582.7528)"/>
<path style="fill-rule:evenodd;fill:rgb(72.549438%,75.686646%,60.784912%);fill-opacity:1;stroke-width:0.216;stroke-linecap:butt;stroke-linejoin:miter;stroke:rgb(0%,0%,0%);stroke-opacity:1;stroke-miterlimit:2.613126;" d="M 918.03125 882.991081 L 902.125 873.069206 L 895.039062 880.15905 L 897.164062 886.53405 L 873.332031 910.7528 L 866.691406 907.795769 L 858.898438 916.299675 L 869.527344 931.889519 L 884.410156 932.59655 L 917.714844 899.998894 Z M 918.03125 882.991081 " transform="matrix(1,0,0,-1,0,1582.7528)"/>
<path style="fill-rule:evenodd;fill:rgb(72.549438%,75.686646%,60.784912%);fill-opacity:1;stroke-width:0.216;stroke-linecap:butt;stroke-linejoin:miter;stroke:rgb(0%,0%,0%);stroke-opacity:1;stroke-miterlimit:2.613126;" d="M 918.03125 882.991081 L 933.03125 882.991081 L 933.308594 907.795769 L 895.746094 946.061394 L 869.527344 946.061394 L 869.527344 931.889519 L 884.410156 932.59655 L 917.714844 899.998894 Z M 918.03125 882.991081 " transform="matrix(1,0,0,-1,0,1582.7528)"/>
<path style="fill-rule:evenodd;fill:rgb(72.549438%,75.686646%,60.784912%);fill-opacity:1;stroke-width:0.216;stroke-linecap:butt;stroke-linejoin:miter;stroke:rgb(0%,0%,0%);stroke-opacity:1;stroke-miterlimit:2.613126;" d="M 1185.589844 593.858269 L 1165.746094 593.858269 L 1165.746094 585.354362 L 1190.550781 585.354362 L 1190.550781 593.858269 Z M 1185.589844 593.858269 " transform="matrix(1,0,0,-1,0,1582.7528)"/>
<path style="fill-rule:evenodd;fill:rgb(72.549438%,75.686646%,60.784912%);fill-opacity:1;stroke-width:0.216;stroke-linecap:butt;stroke-linejoin:miter;stroke:rgb(0%,0%,0%);stroke-opacity:1;stroke-miterlimit:2.613126;" d="M 1206.140625 593.858269 L 1190.550781 593.858269 L 1190.550781 581.811394 L 1206.140625 581.811394 Z M 1206.140625 593.858269 " transform="matrix(1,0,0,-1,0,1582.7528)"/>
<path style="fill-rule:evenodd;fill:rgb(72.549438%,75.686646%,60.784912%);fill-opacity:1;stroke-width:0.216;stroke-linecap:butt;stroke-linejoin:miter;stroke:rgb(0%,0%,0%);stroke-opacity:1;stroke-miterlimit:2.613126;" d="M 565.511719 737.006706 L 531.496094 737.006706 L 531.496094 598.819206 L 486.851562 598.819206 L 486.851562 514.487175 L 565.511719 514.487175 Z M 565.511719 737.006706 " transform="matrix(1,0,0,-1,0,1582.7528)"/>
<path style="fill-rule:evenodd;fill:rgb(72.549438%,75.686646%,60.784912%);fill-opacity:1;stroke-width:0.216;stroke-linecap:butt;stroke-linejoin:miter;stroke:rgb(0%,0%,0%);stroke-opacity:1;stroke-miterlimit:2.613126;" d="M 1137.402344 999.920769 L 1137.402344 960.237175 L 1152.28125 960.237175 L 1152.28125 999.920769 Z M 1137.402344 999.920769 " transform="matrix(1,0,0,-1,0,1582.7528)"/>
<path style="fill-rule:evenodd;fill:rgb(72.549438%,75.686646%,60.784912%);fill-opacity:1;stroke-width:0.216;stroke-linecap:butt;stroke-linejoin:miter;stroke:rgb(0%,0%,0%);stroke-opacity:1;stroke-miterlimit:2.613126;" d="M 1137.402344 1039.604362 L 1137.402344 999.920769 L 1152.28125 999.920769 L 1152.28125 1016.928581 L 1161.496094 1016.928581 L 1161.496094 1022.59655 L 1152.28125 1022.59655 L 1152.28125 1039.604362 Z M 1137.402344 1039.604362 " transform="matrix(1,0,0,-1,0,1582.7528)"/>
<path style="fill-rule:evenodd;fill:rgb(72.549438%,75.686646%,60.784912%);fill-opacity:1;stroke-width:0.216;stroke-linecap:butt;stroke-linejoin:miter;stroke:rgb(0%,0%,0%);stroke-opacity:1;stroke-miterlimit:2.613126;" d="M 1141.652344 940.393425 L 1141.652344 894.330925 L 1152.28125 894.330925 L 1152.28125 940.393425 Z M 1141.652344 940.393425 " transform="matrix(1,0,0,-1,0,1582.7528)"/>
<path style="fill-rule:evenodd;fill:rgb(72.549438%,75.686646%,60.784912%);fill-opacity:1;stroke-width:0.216;stroke-linecap:butt;stroke-linejoin:miter;stroke:rgb(0%,0%,0%);stroke-opacity:1;stroke-miterlimit:2.613126;" d="M 853.226562 1024.725456 L 849.683594 1021.182487 L 850.394531 966.616081 L 853.226562 963.069206 L 895.746094 962.362175 L 931.890625 987.166862 L 932.597656 1020.47155 L 929.054688 1024.014519 Z M 853.226562 1024.725456 " transform="matrix(1,0,0,-1,0,1582.7528)"/>
<path style="fill-rule:evenodd;fill:rgb(72.549438%,75.686646%,60.784912%);fill-opacity:1;stroke-width:0.216;stroke-linecap:butt;stroke-linejoin:miter;stroke:rgb(0%,0%,0%);stroke-opacity:1;stroke-miterlimit:2.613126;" d="M 778.109375 1039.506706 L 738.425781 1038.897331 L 738.425781 995.670769 L 776.691406 964.487175 L 838.347656 964.487175 L 838.347656 1015.510612 L 778.109375 1015.510612 Z M 778.109375 1039.506706 " transform="matrix(1,0,0,-1,0,1582.7528)"/>
<path style="fill-rule:evenodd;fill:rgb(72.549438%,75.686646%,60.784912%);fill-opacity:1;stroke-width:0.216;stroke-linecap:butt;stroke-linejoin:miter;stroke:rgb(0%,0%,0%);stroke-opacity:1;stroke-miterlimit:2.613126;" d="M 757.558594 1195.510612 L 821.339844 1195.510612 L 821.339844 1177.795769 L 757.558594 1177.795769 Z M 757.558594 1195.510612 " transform="matrix(1,0,0,-1,0,1582.7528)"/>
<path style="fill-rule:evenodd;fill:rgb(72.549438%,75.686646%,60.784912%);fill-opacity:1;stroke-width:0.216;stroke-linecap:butt;stroke-linejoin:miter;stroke:rgb(0%,0%,0%);stroke-opacity:1;stroke-miterlimit:2.613126;" d="M 795.117188 1096.299675 L 795.117188 1083.541862 L 778.109375 1083.541862 L 778.109375 1121.811394 L 801.496094 1121.811394 L 801.496094 1096.299675 Z M 795.117188 1096.299675 " transform="matrix(1,0,0,-1,0,1582.7528)"/>
<path style="fill-rule:evenodd;fill:rgb(72.549438%,75.686646%,60.784912%);fill-opacity:1;stroke-width:0.216;stroke-linecap:butt;stroke-linejoin:miter;stroke:rgb(0%,0%,0%);stroke-opacity:1;stroke-miterlimit:2.613126;" d="M 957.832031 1089.213737 L 910.628906 1089.213737 L 910.628906 1074.330925 L 957.832031 1074.330925 Z M 957.832031 1089.213737 " transform="matrix(1,0,0,-1,0,1582.7528)"/>
<path style="fill-rule:evenodd;fill:rgb(72.549438%,75.686646%,60.784912%);fill-opacity:1;stroke-width:0.216;stroke-linecap:butt;stroke-linejoin:miter;stroke:rgb(0%,0%,0%);stroke-opacity:1;stroke-miterlimit:2.613126;" d="M 710.789062 1050.237175 L 612.992188 1050.237175 L 612.992188 1022.7528 L 581.808594 1022.7528 L 581.808594 965.307487 L 722.835938 965.307487 L 722.835938 1092.045769 L 710.789062 1092.045769 Z M 710.789062 1050.237175 " transform="matrix(1,0,0,-1,0,1582.7528)"/>
<path style="fill-rule:evenodd;fill:rgb(72.549438%,75.686646%,60.784912%);fill-opacity:1;stroke-width:0.216;stroke-linecap:butt;stroke-linejoin:miter;stroke:rgb(0%,0%,0%);stroke-opacity:1;stroke-miterlimit:2.613126;" d="M 581.8125 1068.662956 L 612.992188 1068.662956 L 612.992188 1022.7528 L 581.8125 1022.7528 Z M 581.8125 1068.662956 " transform="matrix(1,0,0,-1,0,1582.7528)"/>
<path style="fill-rule:evenodd;fill:rgb(72.549438%,75.686646%,60.784912%);fill-opacity:1;stroke-width:0.216;stroke-linecap:butt;stroke-linejoin:miter;stroke:rgb(0%,0%,0%);stroke-opacity:1;stroke-miterlimit:2.613126;" d="M 698.03125 1123.229362 L 710.789062 1123.229362 L 710.789062 1107.639519 L 742.675781 1107.639519 L 742.675781 1152.28405 L 698.03125 1152.28405 Z M 698.03125 1123.229362 " transform="matrix(1,0,0,-1,0,1582.7528)"/>
<path style="fill-rule:evenodd;fill:rgb(72.549438%,75.686646%,60.784912%);fill-opacity:1;stroke-width:0.216;stroke-linecap:butt;stroke-linejoin:miter;stroke:rgb(0%,0%,0%);stroke-opacity:1;stroke-miterlimit:2.613126;" d="M 644.03125 1123.229362 L 698.03125 1123.229362 L 698.03125 1152.28405 L 644.03125 1152.28405 Z M 644.03125 1123.229362 " transform="matrix(1,0,0,-1,0,1582.7528)"/>
<path style="fill-rule:evenodd;fill:rgb(72.549438%,75.686646%,60.784912%);fill-opacity:1;stroke-width:0.216;stroke-linecap:butt;stroke-linejoin:miter;stroke:rgb(0%,0%,0%);stroke-opacity:1;stroke-miterlimit:2.613126;" d="M 778.109375 1120.202019 L 957.832031 1121.104362 L 957.832031 1153.893425 L 1038.898438 1152.991081 L 1050.238281 1152.991081 L 1050.238281 1168.584831 L 833.386719 1168.584831 L 833.386719 1145.905144 L 818.503906 1145.905144 L 818.503906 1168.584831 L 758.976562 1168.584831 L 758.976562 1106.22155 L 778.109375 1106.22155 Z M 778.109375 1120.202019 " transform="matrix(1,0,0,-1,0,1582.7528)"/>
<path style="fill-rule:evenodd;fill:rgb(72.549438%,75.686646%,60.784912%);fill-opacity:1;stroke-width:0.216;stroke-linecap:butt;stroke-linejoin:miter;stroke:rgb(0%,0%,0%);stroke-opacity:1;stroke-miterlimit:2.613126;" d="M 737.007812 1094.174675 L 778.109375 1094.174675 L 778.109375 1052.037956 L 737.007812 1052.037956 Z M 737.007812 1094.174675 " transform="matrix(1,0,0,-1,0,1582.7528)"/>
<path style="fill-rule:evenodd;fill:rgb(97.254944%,89.019775%,71.372986%);fill-opacity:1;stroke-width:0.216;stroke-linecap:butt;stroke-linejoin:miter;stroke:rgb(0%,0%,0%);stroke-opacity:1;stroke-miterlimit:2.613126;" d="M 842.445312 608.030144 L 851.8125 608.030144 L 851.8125 593.858269 L 842.445312 593.858269 Z M 842.445312 608.030144 " transform="matrix(1,0,0,-1,0,1582.7528)"/>
<path style="fill-rule:evenodd;fill:rgb(97.254944%,89.019775%,71.372986%);fill-opacity:1;stroke-width:0.216;stroke-linecap:butt;stroke-linejoin:miter;stroke:rgb(0%,0%,0%);stroke-opacity:1;stroke-miterlimit:2.613126;" d="M 822.757812 608.030144 L 822.757812 572.59655 L 846.851562 572.59655 L 846.851562 593.858269 L 842.445312 593.858269 L 842.445312 608.030144 Z M 822.757812 608.030144 " transform="matrix(1,0,0,-1,0,1582.7528)"/>
<path style="fill-rule:evenodd;fill:rgb(97.254944%,89.019775%,71.372986%);fill-opacity:1;stroke-width:0.216;stroke-linecap:butt;stroke-linejoin:miter;stroke:rgb(0%,0%,0%);stroke-opacity:1;stroke-miterlimit:2.613126;" d="M 851.8125 608.030144 L 851.8125 593.858269 L 846.851562 593.858269 L 846.851562 572.59655 L 868.109375 572.59655 L 868.109375 608.030144 Z M 851.8125 608.030144 " transform="matrix(1,0,0,-1,0,1582.7528)"/>
<path style="fill-rule:evenodd;fill:rgb(97.254944%,89.019775%,71.372986%);fill-opacity:1;stroke-width:0.216;stroke-linecap:butt;stroke-linejoin:miter;stroke:rgb(0%,0%,0%);stroke-opacity:1;stroke-miterlimit:2.613126;" d="M 807.164062 649.842644 L 807.164062 572.59655 L 822.757812 572.59655 L 822.757812 608.030144 L 868.109375 608.030144 L 868.109375 702.991081 L 807.164062 702.991081 Z M 807.164062 649.842644 " transform="matrix(1,0,0,-1,0,1582.7528)"/>
<path style="fill-rule:evenodd;fill:rgb(97.254944%,89.019775%,71.372986%);fill-opacity:1;stroke-width:0.216;stroke-linecap:butt;stroke-linejoin:miter;stroke:rgb(0%,0%,0%);stroke-opacity:1;stroke-miterlimit:2.613126;" d="M 1069.371094 858.514519 L 1085.667969 858.514519 L 1085.667969 847.557487 L 1069.371094 847.557487 Z M 1069.371094 858.514519 " transform="matrix(1,0,0,-1,0,1582.7528)"/>
<path style="fill-rule:evenodd;fill:rgb(97.254944%,89.019775%,71.372986%);fill-opacity:1;stroke-width:0.216;stroke-linecap:butt;stroke-linejoin:miter;stroke:rgb(0%,0%,0%);stroke-opacity:1;stroke-miterlimit:2.613126;" d="M 1069.371094 847.557487 L 1069.371094 827.717644 L 1101.96875 827.717644 L 1101.96875 851.811394 L 1085.667969 851.811394 L 1085.667969 847.557487 Z M 1069.371094 847.557487 " transform="matrix(1,0,0,-1,0,1582.7528)"/>
<path style="fill-rule:evenodd;fill:rgb(97.254944%,89.019775%,71.372986%);fill-opacity:1;stroke-width:0.216;stroke-linecap:butt;stroke-linejoin:miter;stroke:rgb(0%,0%,0%);stroke-opacity:1;stroke-miterlimit:2.613126;" d="M 1069.371094 873.073112 L 1069.371094 858.514519 L 1085.667969 858.514519 L 1085.667969 851.811394 L 1101.96875 851.811394 L 1101.96875 873.073112 Z M 1069.371094 873.073112 " transform="matrix(1,0,0,-1,0,1582.7528)"/>
<path style="fill-rule:evenodd;fill:rgb(97.254944%,89.019775%,71.372986%);fill-opacity:1;stroke-width:0.216;stroke-linecap:butt;stroke-linejoin:miter;stroke:rgb(0%,0%,0%);stroke-opacity:1;stroke-miterlimit:2.613126;" d="M 1165.746094 711.584831 L 1176.378906 711.584831 L 1176.378906 706.225456 L 1187.714844 706.225456 L 1187.714844 690.944206 L 1165.746094 690.944206 Z M 1165.746094 711.584831 " transform="matrix(1,0,0,-1,0,1582.7528)"/>
<path style="fill-rule:evenodd;fill:rgb(97.254944%,89.019775%,71.372986%);fill-opacity:1;stroke-width:0.216;stroke-linecap:butt;stroke-linejoin:miter;stroke:rgb(0%,0%,0%);stroke-opacity:1;stroke-miterlimit:2.613126;" d="M 682.441406 860.647331 L 698.03125 860.647331 L 698.03125 849.686394 L 682.441406 849.686394 Z M 682.441406 860.647331 " transform="matrix(1,0,0,-1,0,1582.7528)"/>
<path style="fill-rule:evenodd;fill:rgb(97.254944%,89.019775%,71.372986%);fill-opacity:1;stroke-width:0.216;stroke-linecap:butt;stroke-linejoin:miter;stroke:rgb(0%,0%,0%);stroke-opacity:1;stroke-miterlimit:2.613126;" d="M 682.441406 849.686394 L 682.441406 831.260612 L 716.457031 831.260612 L 716.457031 853.936394 L 698.03125 853.936394 L 698.03125 849.686394 Z M 682.441406 849.686394 " transform="matrix(1,0,0,-1,0,1582.7528)"/>
<path style="fill-rule:evenodd;fill:rgb(97.254944%,89.019775%,71.372986%);fill-opacity:1;stroke-width:0.216;stroke-linecap:butt;stroke-linejoin:miter;stroke:rgb(0%,0%,0%);stroke-opacity:1;stroke-miterlimit:2.613126;" d="M 682.441406 874.487175 L 682.441406 860.647331 L 698.03125 860.647331 L 698.03125 853.936394 L 716.457031 853.936394 L 716.457031 874.487175 Z M 682.441406 874.487175 " transform="matrix(1,0,0,-1,0,1582.7528)"/>
<path style="fill-rule:evenodd;fill:rgb(97.254944%,89.019775%,71.372986%);fill-opacity:1;stroke-width:0.216;stroke-linecap:butt;stroke-linejoin:miter;stroke:rgb(0%,0%,0%);stroke-opacity:1;stroke-miterlimit:2.613126;" d="M 878.738281 1101.967644 L 878.738281 1089.213737 L 890.078125 1089.213737 L 890.078125 1101.967644 Z M 878.738281 1101.967644 " transform="matrix(1,0,0,-1,0,1582.7528)"/>
<path style="fill-rule:evenodd;fill:rgb(97.254944%,89.019775%,71.372986%);fill-opacity:1;stroke-width:0.216;stroke-linecap:butt;stroke-linejoin:miter;stroke:rgb(0%,0%,0%);stroke-opacity:1;stroke-miterlimit:2.613126;" d="M 710.789062 1059.557487 L 692.816406 1059.557487 L 692.816406 1050.237175 L 710.789062 1050.237175 Z M 710.789062 1059.557487 " transform="matrix(1,0,0,-1,0,1582.7528)"/>
<path style="fill-rule:evenodd;fill:rgb(97.254944%,89.019775%,71.372986%);fill-opacity:1;stroke-width:0.216;stroke-linecap:butt;stroke-linejoin:miter;stroke:rgb(0%,0%,0%);stroke-opacity:1;stroke-miterlimit:2.613126;" d="M 710.789062 1068.772331 L 692.816406 1068.772331 L 692.816406 1059.448112 L 710.789062 1059.448112 Z M 710.789062 1068.772331 " transform="matrix(1,0,0,-1,0,1582.7528)"/>
<path style="fill-rule:evenodd;fill:rgb(97.254944%,89.019775%,71.372986%);fill-opacity:1;stroke-width:0.216;stroke-linecap:butt;stroke-linejoin:miter;stroke:rgb(0%,0%,0%);stroke-opacity:1;stroke-miterlimit:2.613126;" d="M 549.210938 1016.928581 L 564.804688 1016.928581 L 564.804688 1002.049675 L 549.210938 1002.049675 Z M 549.210938 1016.928581 " transform="matrix(1,0,0,-1,0,1582.7528)"/>
<path style="fill-rule:evenodd;fill:rgb(97.254944%,89.019775%,71.372986%);fill-opacity:1;stroke-width:0.216;stroke-linecap:butt;stroke-linejoin:miter;stroke:rgb(0%,0%,0%);stroke-opacity:1;stroke-miterlimit:2.613126;" d="M 870.238281 1101.967644 L 890.078125 1101.967644 L 890.078125 1121.104362 L 870.238281 1121.104362 Z M 870.238281 1101.967644 " transform="matrix(1,0,0,-1,0,1582.7528)"/>
<path style="fill-rule:evenodd;fill:rgb(97.254944%,89.019775%,71.372986%);fill-opacity:1;stroke-width:0.216;stroke-linecap:butt;stroke-linejoin:miter;stroke:rgb(0%,0%,0%);stroke-opacity:1;stroke-miterlimit:2.613126;" d="M 932.597656 1121.104362 L 932.597656 1089.213737 L 957.832031 1089.213737 L 957.832031 1121.104362 Z M 932.597656 1121.104362 " transform="matrix(1,0,0,-1,0,1582.7528)"/>
<path style="fill-rule:evenodd;fill:rgb(97.254944%,89.019775%,71.372986%);fill-opacity:1;stroke-width:0.216;stroke-linecap:butt;stroke-linejoin:miter;stroke:rgb(0%,0%,0%);stroke-opacity:1;stroke-miterlimit:2.613126;" d="M 932.597656 1089.213737 L 932.597656 1121.104362 L 910.628906 1121.104362 L 910.628906 1089.213737 Z M 932.597656 1089.213737 " transform="matrix(1,0,0,-1,0,1582.7528)"/>
<path style="fill-rule:evenodd;fill:rgb(69.804382%,80.392456%,90.98053%);fill-opacity:1;stroke-width:0.216;stroke-linecap:butt;stroke-linejoin:miter;stroke:rgb(0%,0%,0%);stroke-opacity:1;stroke-miterlimit:2.613126;" d="M 803.585938 364.2528 L 803.585938 439.369987 L 735.589844 439.369987 L 735.589844 364.2528 Z M 803.585938 364.2528 " transform="matrix(1,0,0,-1,0,1582.7528)"/>
<path style="fill-rule:evenodd;fill:rgb(69.804382%,80.392456%,90.98053%);fill-opacity:1;stroke-width:0.216;stroke-linecap:butt;stroke-linejoin:miter;stroke:rgb(0%,0%,0%);stroke-opacity:1;stroke-miterlimit:2.613126;" d="M 870.238281 1101.967644 L 870.238281 1089.213737 L 878.738281 1089.213737 L 878.738281 1101.967644 Z M 870.238281 1101.967644 " transform="matrix(1,0,0,-1,0,1582.7528)"/>
<path style="fill-rule:evenodd;fill:rgb(69.804382%,80.392456%,90.98053%);fill-opacity:1;stroke-width:0.216;stroke-linecap:butt;stroke-linejoin:miter;stroke:rgb(0%,0%,0%);stroke-opacity:1;stroke-miterlimit:2.613126;" d="M 612.992188 1123.229362 L 687.679688 1123.229362 L 687.679688 1103.717644 L 710.789062 1103.717644 L 710.789062 1068.772331 L 692.816406 1068.772331 L 692.816406 1050.237175 L 612.992188 1050.237175 Z M 612.992188 1123.229362 " transform="matrix(1,0,0,-1,0,1582.7528)"/>
<path style="fill-rule:evenodd;fill:rgb(69.804382%,80.392456%,90.98053%);fill-opacity:1;stroke-width:0.216;stroke-linecap:butt;stroke-linejoin:miter;stroke:rgb(0%,0%,0%);stroke-opacity:1;stroke-miterlimit:2.613126;" d="M 687.679688 1123.229362 L 710.789062 1123.229362 L 710.789062 1103.717644 L 687.679688 1103.717644 Z M 687.679688 1123.229362 " transform="matrix(1,0,0,-1,0,1582.7528)"/>
<path style="fill-rule:evenodd;fill:rgb(69.804382%,80.392456%,90.98053%);fill-opacity:1;stroke-width:0.216;stroke-linecap:butt;stroke-linejoin:miter;stroke:rgb(0%,0%,0%);stroke-opacity:1;stroke-miterlimit:2.613126;" d="M 809.292969 439.369987 L 809.292969 364.2528 L 876.613281 364.2528 L 876.613281 439.369987 Z M 809.292969 439.369987 " transform="matrix(1,0,0,-1,0,1582.7528)"/>
<path style="fill-rule:evenodd;fill:rgb(69.804382%,80.392456%,90.98053%);fill-opacity:1;stroke-width:0.216;stroke-linecap:butt;stroke-linejoin:miter;stroke:rgb(0%,0%,0%);stroke-opacity:1;stroke-miterlimit:2.613126;" d="M 882.992188 439.369987 L 882.992188 364.2528 L 951.023438 364.2528 L 951.023438 439.369987 Z M 882.992188 439.369987 " transform="matrix(1,0,0,-1,0,1582.7528)"/>
<path style="fill-rule:evenodd;fill:rgb(69.804382%,80.392456%,90.98053%);fill-opacity:1;stroke-width:0.216;stroke-linecap:butt;stroke-linejoin:miter;stroke:rgb(0%,0%,0%);stroke-opacity:1;stroke-miterlimit:2.613126;" d="M 963.070312 352.205925 L 931.890625 352.205925 L 931.890625 248.030144 L 963.78125 248.030144 L 963.78125 196.748894 L 1045.277344 196.748894 L 1045.277344 431.573112 L 1118.269531 431.573112 L 1118.269531 467.006706 L 963.070312 467.006706 Z M 963.070312 352.205925 " transform="matrix(1,0,0,-1,0,1582.7528)"/>
<path style="fill-rule:evenodd;fill:rgb(69.804382%,80.392456%,90.98053%);fill-opacity:1;stroke-width:0.216;stroke-linecap:butt;stroke-linejoin:miter;stroke:rgb(0%,0%,0%);stroke-opacity:1;stroke-miterlimit:2.613126;" d="M 846.140625 702.991081 L 868.109375 702.991081 L 868.109375 724.2528 L 846.140625 724.2528 Z M 846.140625 702.991081 " transform="matrix(1,0,0,-1,0,1582.7528)"/>
<path style="fill-rule:evenodd;fill:rgb(69.804382%,80.392456%,90.98053%);fill-opacity:1;stroke-width:0.216;stroke-linecap:butt;stroke-linejoin:miter;stroke:rgb(0%,0%,0%);stroke-opacity:1;stroke-miterlimit:2.613126;" d="M 846.140625 702.991081 L 846.140625 724.2528 L 807.164062 724.2528 L 807.164062 702.991081 Z M 846.140625 702.991081 " transform="matrix(1,0,0,-1,0,1582.7528)"/>
<path style="fill-rule:evenodd;fill:rgb(69.804382%,80.392456%,90.98053%);fill-opacity:1;stroke-width:0.216;stroke-linecap:butt;stroke-linejoin:miter;stroke:rgb(0%,0%,0%);stroke-opacity:1;stroke-miterlimit:2.613126;" d="M 807.164062 649.842644 L 807.164062 724.2528 L 732.757812 724.2528 L 732.757812 649.842644 Z M 807.164062 649.842644 " transform="matrix(1,0,0,-1,0,1582.7528)"/>
<path style="fill-rule:evenodd;fill:rgb(69.804382%,80.392456%,90.98053%);fill-opacity:1;stroke-width:0.216;stroke-linecap:butt;stroke-linejoin:miter;stroke:rgb(0%,0%,0%);stroke-opacity:1;stroke-miterlimit:2.613126;" d="M 807.164062 649.842644 L 732.757812 649.842644 L 732.757812 572.59655 L 807.164062 572.59655 Z M 807.164062 649.842644 " transform="matrix(1,0,0,-1,0,1582.7528)"/>
<path style="fill-rule:evenodd;fill:rgb(69.804382%,80.392456%,90.98053%);fill-opacity:1;stroke-width:0.216;stroke-linecap:butt;stroke-linejoin:miter;stroke:rgb(0%,0%,0%);stroke-opacity:1;stroke-miterlimit:2.613126;" d="M 868.109375 647.717644 L 868.109375 572.59655 L 940.394531 572.59655 L 940.394531 647.717644 Z M 868.109375 647.717644 " transform="matrix(1,0,0,-1,0,1582.7528)"/>
<path style="fill-rule:evenodd;fill:rgb(69.804382%,80.392456%,90.98053%);fill-opacity:1;stroke-width:0.216;stroke-linecap:butt;stroke-linejoin:miter;stroke:rgb(0%,0%,0%);stroke-opacity:1;stroke-miterlimit:2.613126;" d="M 868.109375 647.717644 L 940.394531 647.717644 L 940.394531 702.991081 L 868.109375 702.991081 Z M 868.109375 647.717644 " transform="matrix(1,0,0,-1,0,1582.7528)"/>
<path style="fill-rule:evenodd;fill:rgb(69.804382%,80.392456%,90.98053%);fill-opacity:1;stroke-width:0.216;stroke-linecap:butt;stroke-linejoin:miter;stroke:rgb(0%,0%,0%);stroke-opacity:1;stroke-miterlimit:2.613126;" d="M 1029.683594 873.073112 L 1101.96875 873.073112 L 1101.96875 949.604362 L 1029.683594 949.604362 Z M 1029.683594 873.073112 " transform="matrix(1,0,0,-1,0,1582.7528)"/>
<path style="fill-rule:evenodd;fill:rgb(69.804382%,80.392456%,90.98053%);fill-opacity:1;stroke-width:0.216;stroke-linecap:butt;stroke-linejoin:miter;stroke:rgb(0%,0%,0%);stroke-opacity:1;stroke-miterlimit:2.613126;" d="M 1029.683594 873.073112 L 1029.683594 949.604362 L 955.984375 949.604362 L 955.984375 873.073112 Z M 1029.683594 873.073112 " transform="matrix(1,0,0,-1,0,1582.7528)"/>
<path style="fill-rule:evenodd;fill:rgb(69.804382%,80.392456%,90.98053%);fill-opacity:1;stroke-width:0.216;stroke-linecap:butt;stroke-linejoin:miter;stroke:rgb(0%,0%,0%);stroke-opacity:1;stroke-miterlimit:2.613126;" d="M 1029.683594 813.541862 L 955.984375 813.541862 L 955.984375 737.006706 L 1029.683594 737.006706 Z M 1029.683594 813.541862 " transform="matrix(1,0,0,-1,0,1582.7528)"/>
<path style="fill-rule:evenodd;fill:rgb(69.804382%,80.392456%,90.98053%);fill-opacity:1;stroke-width:0.216;stroke-linecap:butt;stroke-linejoin:miter;stroke:rgb(0%,0%,0%);stroke-opacity:1;stroke-miterlimit:2.613126;" d="M 1029.683594 813.541862 L 1029.683594 737.006706 L 1101.96875 737.006706 L 1101.96875 813.541862 Z M 1029.683594 813.541862 " transform="matrix(1,0,0,-1,0,1582.7528)"/>
<path style="fill-rule:evenodd;fill:rgb(69.804382%,80.392456%,90.98053%);fill-opacity:1;stroke-width:0.216;stroke-linecap:butt;stroke-linejoin:miter;stroke:rgb(0%,0%,0%);stroke-opacity:1;stroke-miterlimit:2.613126;" d="M 977.953125 813.541862 L 977.953125 853.229362 L 955.984375 853.229362 L 955.984375 813.541862 Z M 977.953125 813.541862 " transform="matrix(1,0,0,-1,0,1582.7528)"/>
<path style="fill-rule:evenodd;fill:rgb(69.804382%,80.392456%,90.98053%);fill-opacity:1;stroke-width:0.216;stroke-linecap:butt;stroke-linejoin:miter;stroke:rgb(0%,0%,0%);stroke-opacity:1;stroke-miterlimit:2.613126;" d="M 955.984375 853.229362 L 977.953125 853.229362 L 977.953125 873.073112 L 955.984375 873.073112 Z M 955.984375 853.229362 " transform="matrix(1,0,0,-1,0,1582.7528)"/>
<path style="fill-rule:evenodd;fill:rgb(69.804382%,80.392456%,90.98053%);fill-opacity:1;stroke-width:0.216;stroke-linecap:butt;stroke-linejoin:miter;stroke:rgb(0%,0%,0%);stroke-opacity:1;stroke-miterlimit:2.613126;" d="M 977.953125 853.229362 L 977.953125 813.541862 L 1101.96875 813.541862 L 1101.96875 827.717644 L 1069.371094 827.717644 L 1069.371094 873.073112 L 977.953125 873.073112 Z M 977.953125 853.229362 " transform="matrix(1,0,0,-1,0,1582.7528)"/>
<path style="fill-rule:evenodd;fill:rgb(69.804382%,80.392456%,90.98053%);fill-opacity:1;stroke-width:0.216;stroke-linecap:butt;stroke-linejoin:miter;stroke:rgb(0%,0%,0%);stroke-opacity:1;stroke-miterlimit:2.613126;" d="M 1152.28125 1022.59655 L 1226.691406 1022.59655 L 1226.691406 1087.795769 L 1152.28125 1087.795769 Z M 1152.28125 1022.59655 " transform="matrix(1,0,0,-1,0,1582.7528)"/>
<path style="fill-rule:evenodd;fill:rgb(69.804382%,80.392456%,90.98053%);fill-opacity:1;stroke-width:0.216;stroke-linecap:butt;stroke-linejoin:miter;stroke:rgb(0%,0%,0%);stroke-opacity:1;stroke-miterlimit:2.613126;" d="M 1226.691406 1016.928581 L 1152.28125 1016.928581 L 1152.28125 952.4403 L 1226.691406 952.4403 Z M 1226.691406 1016.928581 " transform="matrix(1,0,0,-1,0,1582.7528)"/>
<path style="fill-rule:evenodd;fill:rgb(69.804382%,80.392456%,90.98053%);fill-opacity:1;stroke-width:0.216;stroke-linecap:butt;stroke-linejoin:miter;stroke:rgb(0%,0%,0%);stroke-opacity:1;stroke-miterlimit:2.613126;" d="M 1248.660156 946.772331 L 1152.28125 946.772331 L 1152.28125 888.65905 L 1248.660156 888.65905 Z M 1248.660156 946.772331 " transform="matrix(1,0,0,-1,0,1582.7528)"/>
<path style="fill-rule:evenodd;fill:rgb(69.804382%,80.392456%,90.98053%);fill-opacity:1;stroke-width:0.216;stroke-linecap:butt;stroke-linejoin:miter;stroke:rgb(0%,0%,0%);stroke-opacity:1;stroke-miterlimit:2.613126;" d="M 1248.660156 882.28405 L 1152.28125 882.28405 L 1152.28125 823.463737 L 1248.660156 823.463737 Z M 1248.660156 882.28405 " transform="matrix(1,0,0,-1,0,1582.7528)"/>
<path style="fill-rule:evenodd;fill:rgb(69.804382%,80.392456%,90.98053%);fill-opacity:1;stroke-width:0.216;stroke-linecap:butt;stroke-linejoin:miter;stroke:rgb(0%,0%,0%);stroke-opacity:1;stroke-miterlimit:2.613126;" d="M 1248.660156 819.213737 L 1161.496094 819.213737 L 1161.496094 760.393425 L 1257.164062 760.393425 L 1257.164062 819.213737 Z M 1248.660156 819.213737 " transform="matrix(1,0,0,-1,0,1582.7528)"/>
<path style="fill-rule:evenodd;fill:rgb(69.804382%,80.392456%,90.98053%);fill-opacity:1;stroke-width:0.216;stroke-linecap:butt;stroke-linejoin:miter;stroke:rgb(0%,0%,0%);stroke-opacity:1;stroke-miterlimit:2.613126;" d="M 1185.589844 677.479362 L 1165.746094 677.479362 L 1165.746094 651.260612 L 1185.589844 651.260612 Z M 1185.589844 677.479362 " transform="matrix(1,0,0,-1,0,1582.7528)"/>
<path style="fill-rule:evenodd;fill:rgb(69.804382%,80.392456%,90.98053%);fill-opacity:1;stroke-width:0.216;stroke-linecap:butt;stroke-linejoin:miter;stroke:rgb(0%,0%,0%);stroke-opacity:1;stroke-miterlimit:2.613126;" d="M 1185.589844 651.260612 L 1165.746094 651.260612 L 1165.746094 622.912956 L 1185.589844 622.912956 Z M 1185.589844 651.260612 " transform="matrix(1,0,0,-1,0,1582.7528)"/>
<path style="fill-rule:evenodd;fill:rgb(69.804382%,80.392456%,90.98053%);fill-opacity:1;stroke-width:0.216;stroke-linecap:butt;stroke-linejoin:miter;stroke:rgb(0%,0%,0%);stroke-opacity:1;stroke-miterlimit:2.613126;" d="M 1185.589844 622.912956 L 1165.746094 622.912956 L 1165.746094 593.858269 L 1185.589844 593.858269 Z M 1185.589844 622.912956 " transform="matrix(1,0,0,-1,0,1582.7528)"/>
<path style="fill-rule:evenodd;fill:rgb(69.804382%,80.392456%,90.98053%);fill-opacity:1;stroke-width:0.216;stroke-linecap:butt;stroke-linejoin:miter;stroke:rgb(0%,0%,0%);stroke-opacity:1;stroke-miterlimit:2.613126;" d="M 1185.589844 651.260612 L 1185.589844 593.858269 L 1257.164062 593.858269 L 1257.164062 733.463737 L 1165.746094 733.463737 L 1165.746094 711.584831 L 1176.378906 711.584831 L 1176.378906 706.225456 L 1187.714844 706.225456 L 1187.714844 690.944206 L 1165.746094 690.944206 L 1165.746094 677.479362 L 1185.589844 677.479362 Z M 1185.589844 651.260612 " transform="matrix(1,0,0,-1,0,1582.7528)"/>
<path style="fill-rule:evenodd;fill:rgb(69.804382%,80.392456%,90.98053%);fill-opacity:1;stroke-width:0.216;stroke-linecap:butt;stroke-linejoin:miter;stroke:rgb(0%,0%,0%);stroke-opacity:1;stroke-miterlimit:2.613126;" d="M 1257.164062 574.748894 L 1165.746094 574.748894 L 1165.746094 516.612175 L 1257.164062 516.612175 Z M 1257.164062 574.748894 " transform="matrix(1,0,0,-1,0,1582.7528)"/>
<path style="fill-rule:evenodd;fill:rgb(69.804382%,80.392456%,90.98053%);fill-opacity:1;stroke-width:0.216;stroke-linecap:butt;stroke-linejoin:miter;stroke:rgb(0%,0%,0%);stroke-opacity:1;stroke-miterlimit:2.613126;" d="M 1257.164062 496.0653 L 1165.746094 496.0653 L 1165.746094 437.952019 L 1257.164062 437.952019 Z M 1257.164062 496.0653 " transform="matrix(1,0,0,-1,0,1582.7528)"/>
<path style="fill-rule:evenodd;fill:rgb(69.804382%,80.392456%,90.98053%);fill-opacity:1;stroke-width:0.216;stroke-linecap:butt;stroke-linejoin:miter;stroke:rgb(0%,0%,0%);stroke-opacity:1;stroke-miterlimit:2.613126;" d="M 1222.441406 424.487175 L 1271.558594 424.487175 L 1271.558594 410.3153 L 1222.441406 410.3153 Z M 1222.441406 424.487175 " transform="matrix(1,0,0,-1,0,1582.7528)"/>
<path style="fill-rule:evenodd;fill:rgb(69.804382%,80.392456%,90.98053%);fill-opacity:1;stroke-width:0.216;stroke-linecap:butt;stroke-linejoin:miter;stroke:rgb(0%,0%,0%);stroke-opacity:1;stroke-miterlimit:2.613126;" d="M 641.339844 874.487175 L 641.339844 951.733269 L 568.347656 951.733269 L 568.347656 874.487175 Z M 641.339844 874.487175 " transform="matrix(1,0,0,-1,0,1582.7528)"/>
<path style="fill-rule:evenodd;fill:rgb(69.804382%,80.392456%,90.98053%);fill-opacity:1;stroke-width:0.216;stroke-linecap:butt;stroke-linejoin:miter;stroke:rgb(0%,0%,0%);stroke-opacity:1;stroke-miterlimit:2.613126;" d="M 641.339844 951.733269 L 641.339844 874.487175 L 716.457031 874.487175 L 716.457031 951.733269 Z M 641.339844 951.733269 " transform="matrix(1,0,0,-1,0,1582.7528)"/>
<path style="fill-rule:evenodd;fill:rgb(69.804382%,80.392456%,90.98053%);fill-opacity:1;stroke-width:0.216;stroke-linecap:butt;stroke-linejoin:miter;stroke:rgb(0%,0%,0%);stroke-opacity:1;stroke-miterlimit:2.613126;" d="M 641.339844 815.670769 L 568.347656 815.670769 L 568.347656 739.135612 L 641.339844 739.135612 Z M 641.339844 815.670769 " transform="matrix(1,0,0,-1,0,1582.7528)"/>
<path style="fill-rule:evenodd;fill:rgb(69.804382%,80.392456%,90.98053%);fill-opacity:1;stroke-width:0.216;stroke-linecap:butt;stroke-linejoin:miter;stroke:rgb(0%,0%,0%);stroke-opacity:1;stroke-miterlimit:2.613126;" d="M 641.339844 815.670769 L 641.339844 739.135612 L 716.457031 739.135612 L 716.457031 815.670769 Z M 641.339844 815.670769 " transform="matrix(1,0,0,-1,0,1582.7528)"/>
<path style="fill-rule:evenodd;fill:rgb(69.804382%,80.392456%,90.98053%);fill-opacity:1;stroke-width:0.216;stroke-linecap:butt;stroke-linejoin:miter;stroke:rgb(0%,0%,0%);stroke-opacity:1;stroke-miterlimit:2.613126;" d="M 590.316406 815.670769 L 590.316406 853.936394 L 568.347656 853.936394 L 568.347656 815.670769 Z M 590.316406 815.670769 " transform="matrix(1,0,0,-1,0,1582.7528)"/>
<path style="fill-rule:evenodd;fill:rgb(69.804382%,80.392456%,90.98053%);fill-opacity:1;stroke-width:0.216;stroke-linecap:butt;stroke-linejoin:miter;stroke:rgb(0%,0%,0%);stroke-opacity:1;stroke-miterlimit:2.613126;" d="M 568.347656 853.936394 L 590.316406 853.936394 L 590.316406 874.487175 L 568.347656 874.487175 Z M 568.347656 853.936394 " transform="matrix(1,0,0,-1,0,1582.7528)"/>
<path style="fill-rule:evenodd;fill:rgb(69.804382%,80.392456%,90.98053%);fill-opacity:1;stroke-width:0.216;stroke-linecap:butt;stroke-linejoin:miter;stroke:rgb(0%,0%,0%);stroke-opacity:1;stroke-miterlimit:2.613126;" d="M 590.316406 853.936394 L 590.316406 815.670769 L 716.457031 815.670769 L 716.457031 831.260612 L 682.441406 831.260612 L 682.441406 874.487175 L 590.316406 874.487175 Z M 590.316406 853.936394 " transform="matrix(1,0,0,-1,0,1582.7528)"/>
<path style="fill-rule:evenodd;fill:rgb(69.804382%,80.392456%,90.98053%);fill-opacity:1;stroke-width:0.216;stroke-linecap:butt;stroke-linejoin:miter;stroke:rgb(0%,0%,0%);stroke-opacity:1;stroke-miterlimit:2.613126;" d="M 957.832031 1151.573112 L 957.832031 997.795769 L 1055.195312 997.795769 L 1055.195312 1151.573112 Z M 957.832031 1151.573112 " transform="matrix(1,0,0,-1,0,1582.7528)"/>
<path style="fill-rule:evenodd;fill:rgb(69.804382%,80.392456%,90.98053%);fill-opacity:1;stroke-width:0.216;stroke-linecap:butt;stroke-linejoin:miter;stroke:rgb(0%,0%,0%);stroke-opacity:1;stroke-miterlimit:2.613126;" d="M 1055.195312 1097.006706 L 1055.195312 1043.858269 L 1097.714844 1043.858269 L 1097.714844 1097.006706 Z M 1055.195312 1097.006706 " transform="matrix(1,0,0,-1,0,1582.7528)"/>
<path style="fill-rule:evenodd;fill:rgb(69.804382%,80.392456%,90.98053%);fill-opacity:1;stroke-width:0.216;stroke-linecap:butt;stroke-linejoin:miter;stroke:rgb(0%,0%,0%);stroke-opacity:1;stroke-miterlimit:2.613126;" d="M 1055.195312 1097.006706 L 1097.714844 1097.006706 L 1097.714844 1139.526237 L 1055.195312 1139.526237 Z M 1055.195312 1097.006706 " transform="matrix(1,0,0,-1,0,1582.7528)"/>
<path style="fill-rule:evenodd;fill:rgb(69.804382%,80.392456%,90.98053%);fill-opacity:1;stroke-width:0.216;stroke-linecap:butt;stroke-linejoin:miter;stroke:rgb(0%,0%,0%);stroke-opacity:1;stroke-miterlimit:2.613126;" d="M 1097.714844 1043.858269 L 1084.253906 1043.858269 L 1084.253906 1008.424675 L 1097.714844 1008.424675 Z M 1097.714844 1043.858269 " transform="matrix(1,0,0,-1,0,1582.7528)"/>
<path style="fill-rule:evenodd;fill:rgb(69.804382%,80.392456%,90.98053%);fill-opacity:1;stroke-width:0.216;stroke-linecap:butt;stroke-linejoin:miter;stroke:rgb(0%,0%,0%);stroke-opacity:1;stroke-miterlimit:2.613126;" d="M 811.417969 1015.510612 L 811.417969 1045.077019 L 802.351562 1053.780144 L 778.109375 1053.780144 L 778.109375 1015.510612 Z M 811.417969 1015.510612 " transform="matrix(1,0,0,-1,0,1582.7528)"/>
<path style="fill-rule:evenodd;fill:rgb(69.804382%,80.392456%,90.98053%);fill-opacity:1;stroke-width:0.216;stroke-linecap:butt;stroke-linejoin:miter;stroke:rgb(0%,0%,0%);stroke-opacity:1;stroke-miterlimit:2.613126;" d="M 811.417969 1045.077019 L 811.417969 1015.510612 L 838.347656 1015.510612 L 838.347656 1008.424675 L 844.015625 1008.424675 L 844.015625 1121.811394 L 801.496094 1121.811394 L 801.496094 1096.299675 L 795.117188 1096.299675 L 795.117188 1083.541862 L 778.109375 1083.541862 L 778.109375 1053.780144 L 802.351562 1053.780144 Z M 811.417969 1045.077019 " transform="matrix(1,0,0,-1,0,1582.7528)"/>
<path style="fill-rule:evenodd;fill:rgb(69.804382%,80.392456%,90.98053%);fill-opacity:1;stroke-width:0.216;stroke-linecap:butt;stroke-linejoin:miter;stroke:rgb(0%,0%,0%);stroke-opacity:1;stroke-miterlimit:2.613126;" d="M 844.015625 1089.213737 L 870.238281 1089.213737 L 870.238281 1121.104362 L 844.015625 1121.104362 Z M 844.015625 1089.213737 " transform="matrix(1,0,0,-1,0,1582.7528)"/>
<path style="fill-rule:evenodd;fill:rgb(69.804382%,80.392456%,90.98053%);fill-opacity:1;stroke-width:0.216;stroke-linecap:butt;stroke-linejoin:miter;stroke:rgb(0%,0%,0%);stroke-opacity:1;stroke-miterlimit:2.613126;" d="M 890.078125 1121.104362 L 890.078125 1089.213737 L 910.628906 1089.213737 L 910.628906 1121.104362 Z M 890.078125 1121.104362 " transform="matrix(1,0,0,-1,0,1582.7528)"/>
<path style="fill-rule:evenodd;fill:rgb(69.804382%,80.392456%,90.98053%);fill-opacity:1;stroke-width:0.216;stroke-linecap:butt;stroke-linejoin:miter;stroke:rgb(0%,0%,0%);stroke-opacity:1;stroke-miterlimit:2.613126;" d="M 886.535156 1053.780144 L 844.015625 1053.780144 L 844.015625 1028.268425 L 886.535156 1028.268425 Z M 886.535156 1053.780144 " transform="matrix(1,0,0,-1,0,1582.7528)"/>
<path style="fill-rule:evenodd;fill:rgb(69.804382%,80.392456%,90.98053%);fill-opacity:1;stroke-width:0.216;stroke-linecap:butt;stroke-linejoin:miter;stroke:rgb(0%,0%,0%);stroke-opacity:1;stroke-miterlimit:2.613126;" d="M 886.535156 1053.780144 L 886.535156 1028.268425 L 957.832031 1028.268425 L 957.832031 1074.330925 L 910.628906 1074.330925 L 910.628906 1089.213737 L 844.015625 1089.213737 L 844.015625 1053.780144 Z M 886.535156 1053.780144 " transform="matrix(1,0,0,-1,0,1582.7528)"/>
<path style="fill-rule:evenodd;fill:rgb(69.804382%,80.392456%,90.98053%);fill-opacity:1;stroke-width:0.216;stroke-linecap:butt;stroke-linejoin:miter;stroke:rgb(0%,0%,0%);stroke-opacity:1;stroke-miterlimit:2.613126;" d="M 549.210938 1016.928581 L 564.804688 1016.928581 L 564.804688 1096.299675 L 508.109375 1096.299675 L 508.109375 1002.049675 L 549.210938 1002.049675 Z M 549.210938 1016.928581 " transform="matrix(1,0,0,-1,0,1582.7528)"/>
</g>
</svg>
